<svg xmlns="http://www.w3.org/2000/svg" width="550" height="550" id="bicycle"><path fill="none" stroke="#000" stroke-linecap="round" stroke-linejoin="round" stroke-miterlimit="10" stroke-width="20" d="m397.482 230.5-115.923 127H101.876l133.312-127zM281.559 357.303l-64.403-175.818M444.817 357.303l-72.894-199.004"></path><circle cx="101.876" cy="357.623" r="84.689" fill="none" stroke="#000" stroke-linecap="round" stroke-linejoin="round" stroke-miterlimit="10" stroke-width="20"></circle><circle cx="444.818" cy="357.623" r="84.689" fill="none" stroke="#000" stroke-linecap="round" stroke-linejoin="round" stroke-miterlimit="10" stroke-width="20"></circle><path fill="none" stroke="#000" stroke-linecap="round" stroke-linejoin="round" stroke-miterlimit="10" stroke-width="20" d="M280.5 357.5v45M255.5 169.665c0-6.27-4.729-11.165-10.997-11.165h-56.299c-6.269 0-11.704 4.895-11.704 11.165v.299c0 6.268 5.436 11.537 11.704 11.537h56.299c6.269 0 10.997-5.269 10.997-11.537v-.299zM258.5 403.5h46M371.957 158.524s43.989 14.302 62.685 20.691c18.677 6.383 37.713-19.062 14.844-37.28"></path></svg>