<?xml version="1.0" encoding="UTF-8" standalone="no"?>
<!-- Created with Inkscape (http://www.inkscape.org/) -->

<svg
   version="1.1"
   id="svg2"
   width="666.66669"
   height="666.66669"
   viewBox="0 0 666.66669 666.66669"
   sodipodi:docname="3206389.ai"
   xmlns:inkscape="http://www.inkscape.org/namespaces/inkscape"
   xmlns:sodipodi="http://sodipodi.sourceforge.net/DTD/sodipodi-0.dtd"
   xmlns="http://www.w3.org/2000/svg"
   xmlns:svg="http://www.w3.org/2000/svg">
  <defs
     id="defs6">
    <clipPath
       clipPathUnits="userSpaceOnUse"
       id="clipPath16">
      <path
         d="M 0,500 H 500 V 0 H 0 Z"
         id="path14" />
    </clipPath>
    <clipPath
       clipPathUnits="userSpaceOnUse"
       id="clipPath28">
      <path
         d="M 0,500 H 500 V 0 H 0 Z"
         id="path26" />
    </clipPath>
    <clipPath
       clipPathUnits="userSpaceOnUse"
       id="clipPath44">
      <path
         d="M 0,500 H 500 V 0 H 0 Z"
         id="path42" />
    </clipPath>
    <clipPath
       clipPathUnits="userSpaceOnUse"
       id="clipPath56">
      <path
         d="M 38.567,276.602 H 69.6411 V 201.503 H 38.567 Z"
         id="path54" />
    </clipPath>
    <clipPath
       clipPathUnits="userSpaceOnUse"
       id="clipPath92">
      <path
         d="m 421.618,288.337 h 42.334 v -90.109 h -42.334 z"
         id="path90" />
    </clipPath>
    <clipPath
       clipPathUnits="userSpaceOnUse"
       id="clipPath120">
      <path
         d="M 0,500 H 500 V 0 H 0 Z"
         id="path118" />
    </clipPath>
    <clipPath
       clipPathUnits="userSpaceOnUse"
       id="clipPath136">
      <path
         d="M 0,500 H 500 V 0 H 0 Z"
         id="path134" />
    </clipPath>
    <clipPath
       clipPathUnits="userSpaceOnUse"
       id="clipPath148">
      <path
         d="M 0,500 H 500 V 0 H 0 Z"
         id="path146" />
    </clipPath>
    <clipPath
       clipPathUnits="userSpaceOnUse"
       id="clipPath160">
      <path
         d="m 227.5,200.864 h 26.974 V 182.917 H 227.5 Z"
         id="path158" />
    </clipPath>
    <clipPath
       clipPathUnits="userSpaceOnUse"
       id="clipPath212">
      <path
         d="m 297.388,220.068 h 27.546 V 137.09 h -27.546 z"
         id="path210" />
    </clipPath>
    <clipPath
       clipPathUnits="userSpaceOnUse"
       id="clipPath240">
      <path
         d="m 290.448,173.997 h 56.624 V 97.5806 h -56.624 z"
         id="path238" />
    </clipPath>
    <clipPath
       clipPathUnits="userSpaceOnUse"
       id="clipPath268">
      <path
         d="m 309.715,153.313 h 24.911 v -30.849 h -24.911 z"
         id="path266" />
    </clipPath>
    <clipPath
       clipPathUnits="userSpaceOnUse"
       id="clipPath304">
      <path
         d="m 140.188,260.748 h 56.624 v -76.417 h -56.624 z"
         id="path302" />
    </clipPath>
    <clipPath
       clipPathUnits="userSpaceOnUse"
       id="clipPath332">
      <path
         d="m 159.455,240.064 h 24.911 v -30.849 h -24.911 z"
         id="path330" />
    </clipPath>
    <clipPath
       clipPathUnits="userSpaceOnUse"
       id="clipPath380">
      <path
         d="M 169.572,292.802 H 322.701 V 135.693 H 169.572 Z"
         id="path378" />
    </clipPath>
    <clipPath
       clipPathUnits="userSpaceOnUse"
       id="clipPath420">
      <path
         d="m 289.521,261.545 h 4.908 v -15.917 h -4.908 z"
         id="path418" />
    </clipPath>
    <clipPath
       clipPathUnits="userSpaceOnUse"
       id="clipPath440">
      <path
         d="m 222.314,186.597 h 24.911 v -30.849 h -24.911 z"
         id="path438" />
    </clipPath>
    <clipPath
       clipPathUnits="userSpaceOnUse"
       id="clipPath472">
      <path
         d="m 203.029,155.031 h 26.974 v -17.946 h -26.974 z"
         id="path470" />
    </clipPath>
    <clipPath
       clipPathUnits="userSpaceOnUse"
       id="clipPath540">
      <path
         d="m 263.273,371.26 h 26.244 V 324.8 h -26.244 z"
         id="path538" />
    </clipPath>
    <clipPath
       clipPathUnits="userSpaceOnUse"
       id="clipPath576">
      <path
         d="m 211.192,350.066 h 46.735 v -56.807 h -46.735 z"
         id="path574" />
    </clipPath>
    <clipPath
       clipPathUnits="userSpaceOnUse"
       id="clipPath676">
      <path
         d="m 217.797,372.411 h 24.889 v -48.765 h -24.889 z"
         id="path674" />
    </clipPath>
  </defs>
  <sodipodi:namedview
     id="namedview4"
     pagecolor="#ffffff"
     bordercolor="#000000"
     borderopacity="0.25"
     inkscape:showpageshadow="2"
     inkscape:pageopacity="0.0"
     inkscape:pagecheckerboard="0"
     inkscape:deskcolor="#d1d1d1" />
  <g
     id="g8"
     inkscape:groupmode="layer"
     inkscape:label="3206389"
     transform="matrix(1.3333333,0,0,-1.3333333,0,666.66667)">
    <g
       id="g10">
      <g
         id="g12"
         clip-path="url(#clipPath16)">
        <g
           id="g18"
           transform="translate(415.002,254.3003)">
          <path
             d="m 0,0 c 91.128,-52.612 91.127,-137.915 -0.001,-190.527 -91.128,-52.613 -238.875,-52.613 -330.003,-0.001 -91.128,52.612 -91.127,137.915 0.001,190.528 C -238.875,52.612 -91.128,52.613 0,0"
             style="fill:#f5f5f5;fill-opacity:1;fill-rule:nonzero;stroke:none"
             id="path20" />
        </g>
      </g>
    </g>
    <g
       id="g22">
      <g
         id="g24"
         clip-path="url(#clipPath28)">
        <g
           id="g30"
           transform="translate(108.0986,457.2974)">
          <path
             d="m 0,0 -9.538,-5.507 c 0.047,0.426 0.08,0.849 0.08,1.263 v 2.763 c 0,4.918 -3.452,6.91 -7.711,4.452 -1.725,-0.996 -3.311,-2.574 -4.595,-4.419 -0.698,6.183 -5.549,8.486 -11.441,5.084 -6.371,-3.678 -11.536,-12.624 -11.536,-19.98 v -4.134 c 0,-1.906 0.352,-3.51 0.976,-4.79 l -7.922,-4.573 c -2.362,-1.364 -4.277,-4.681 -4.277,-7.409 0,-2.727 1.915,-3.833 4.277,-2.469 L 0,-9.877 c 2.362,1.363 4.277,4.68 4.277,7.408 C 4.277,0.258 2.362,1.364 0,0"
             style="fill:#ebebeb;fill-opacity:1;fill-rule:nonzero;stroke:none"
             id="path32" />
        </g>
        <g
           id="g34"
           transform="translate(148.917,429.5063)">
          <path
             d="m 0,0 -7.199,-4.156 c 0.036,0.322 0.061,0.64 0.061,0.953 v 2.085 c 0,3.711 -2.605,5.216 -5.82,3.36 -1.301,-0.751 -2.499,-1.942 -3.468,-3.335 -0.526,4.666 -4.187,6.405 -8.634,3.837 -4.809,-2.776 -8.706,-9.527 -8.706,-15.079 v -3.12 c 0,-1.438 0.266,-2.649 0.737,-3.614 l -5.979,-3.452 c -1.784,-1.03 -3.229,-3.533 -3.229,-5.592 0,-2.058 1.445,-2.893 3.229,-1.863 L 0,-7.455 c 1.783,1.029 3.228,3.533 3.228,5.591 C 3.228,0.195 1.783,1.029 0,0"
             style="fill:#ebebeb;fill-opacity:1;fill-rule:nonzero;stroke:none"
             id="path36" />
        </g>
      </g>
    </g>
    <g
       id="g38">
      <g
         id="g40"
         clip-path="url(#clipPath44)">
        <g
           id="g46"
           transform="translate(58.2847,201.5029)">
          <path
             d="m 0,0 8.032,4.642 c 0,0 4.781,19.864 2.876,37.738 -2.679,25.13 -19.221,34.586 -25.511,32.419 -6.29,-2.168 -8.111,-9.48 2.296,-24.447 C -6.166,41.521 1.378,23.127 0,0"
             style="fill:#27debf;fill-opacity:1;fill-rule:nonzero;stroke:none"
             id="path48" />
        </g>
        <g
           id="g50">
          <g
             id="g52" />
          <g
             id="g64">
            <g
               clip-path="url(#clipPath56)"
               opacity="0.149994"
               id="g62">
              <g
                 transform="translate(58.2847,201.5029)"
                 id="g60">
                <path
                   d="m 0,0 8.032,4.642 c 0,0 4.781,19.864 2.876,37.738 -2.679,25.13 -19.221,34.586 -25.511,32.419 -6.29,-2.168 -8.111,-9.48 2.296,-24.447 C -6.166,41.521 1.378,23.127 0,0"
                   style="fill:#000000;fill-opacity:1;fill-rule:nonzero;stroke:none"
                   id="path58" />
              </g>
            </g>
          </g>
        </g>
        <g
           id="g66"
           transform="translate(61.6128,211.2617)">
          <path
             d="m 0,0 c -0.026,0.001 -0.051,0.005 -0.077,0.01 -0.302,0.057 -0.501,0.348 -0.443,0.651 4.403,23.178 -3.694,49.225 -13.721,60.063 -0.209,0.225 -0.195,0.578 0.031,0.787 0.226,0.207 0.579,0.196 0.788,-0.031 C -3.213,50.444 5.042,23.973 0.574,0.453 0.522,0.177 0.273,-0.014 0,0"
             style="fill:#ffffff;fill-opacity:1;fill-rule:nonzero;stroke:none"
             id="path68" />
        </g>
        <g
           id="g70"
           transform="translate(37.2427,189.3516)">
          <path
             d="m 0,0 c -1.269,-0.646 -4.643,2.243 -5.584,2.945 -1.61,1.202 -2.88,2.854 -3.687,4.69 -0.939,2.137 -1.089,4.384 -0.646,6.674 0.229,1.187 0.623,2.336 1.015,3.48 0.385,1.123 0.77,2.246 1.155,3.369 0.38,1.108 0.766,2.255 0.676,3.423 -0.181,2.353 -2.175,4.096 -3.99,5.604 -2.008,1.668 -4.077,3.839 -3.923,6.654 0.119,2.172 1.345,4.132 2.777,5.769 1.432,1.637 3.106,3.062 4.413,4.8 0.941,1.252 1.701,2.738 1.637,4.303 -0.039,0.972 -0.395,1.903 -0.815,2.781 -0.902,1.883 -2.128,3.628 -2.714,5.632 -0.586,2.003 -0.365,4.447 1.243,5.778 1.319,1.094 3.202,1.161 4.904,0.961 1.575,-0.184 3.081,-0.974 4.425,-1.813 4.343,-2.71 6.627,-8.132 11.273,-10.283 1.792,-0.829 3.788,-1.092 5.67,-1.692 1.881,-0.6 3.775,-1.672 4.569,-3.48 1.566,-3.565 -1.88,-7.687 -0.843,-11.44 0.918,-3.321 4.029,-4.731 5.663,-7.764 0.715,-1.327 0.819,-2.824 0.618,-4.318 -0.341,-2.528 -0.807,-4.372 -2.168,-7.135 -1.124,-2.282 -4.29,-6.596 -4.29,-6.596 C 21.378,12.342 0.195,0.099 0,0"
             style="fill:#27debf;fill-opacity:1;fill-rule:nonzero;stroke:none"
             id="path72" />
        </g>
        <g
           id="g74"
           transform="translate(49.5381,195.7598)">
          <path
             d="m 0,0 c -0.008,0 -0.015,0 -0.015,0 -0.315,0.029 -0.54,0.301 -0.512,0.607 2.033,22.046 -7.146,46.962 -14.358,54.43 -0.214,0.221 -0.208,0.573 0.013,0.788 0.223,0.213 0.574,0.206 0.789,-0.014 C -6.726,48.193 2.645,22.862 0.583,0.505 0.555,0.206 0.297,-0.015 0,0"
             style="fill:#ffffff;fill-opacity:1;fill-rule:nonzero;stroke:none"
             id="path76" />
        </g>
        <g
           id="g78"
           transform="translate(47.3481,222.9429)">
          <path
             d="m 0,0 c -0.054,0.003 -0.109,0.013 -0.163,0.033 -6.987,2.552 -15.815,3.386 -15.902,3.393 -0.307,0.029 -0.532,0.301 -0.505,0.607 0.029,0.305 0.274,0.536 0.607,0.504 C -15.874,4.528 -6.906,3.683 0.219,1.08 0.508,0.975 0.657,0.654 0.551,0.366 0.465,0.13 0.238,-0.012 0,0"
             style="fill:#ffffff;fill-opacity:1;fill-rule:nonzero;stroke:none"
             id="path80" />
        </g>
        <g
           id="g82"
           transform="translate(433.0723,198.2275)">
          <path
             d="m 0,0 -10.066,5.812 c 0,0 -2.466,21.558 -0.826,38.254 2.306,23.461 17.457,51.69 35.533,45.06 C 42.716,82.497 16.353,58.604 10.484,38.705 4.616,18.806 0,0 0,0"
             style="fill:#27debf;fill-opacity:1;fill-rule:nonzero;stroke:none"
             id="path84" />
        </g>
        <g
           id="g86">
          <g
             id="g88" />
          <g
             id="g100">
            <g
               clip-path="url(#clipPath92)"
               opacity="0.149994"
               id="g98">
              <g
                 transform="translate(433.0723,198.2275)"
                 id="g96">
                <path
                   d="m 0,0 -10.066,5.812 c 0,0 -2.466,21.558 -0.826,38.254 2.306,23.461 17.457,51.69 35.533,45.06 C 42.716,82.497 16.353,58.604 10.484,38.705 4.616,18.806 0,0 0,0"
                   style="fill:#000000;fill-opacity:1;fill-rule:nonzero;stroke:none"
                   id="path94" />
              </g>
            </g>
          </g>
        </g>
        <g
           id="g102"
           transform="translate(427.7783,200.6748)">
          <path
             d="m 0,0 h 0.021 c 0.336,0.011 0.6,0.293 0.588,0.63 -1.768,52.129 24.182,78.352 24.444,78.61 0.24,0.237 0.243,0.623 0.007,0.862 -0.24,0.239 -0.624,0.242 -0.862,0.006 C 23.932,79.845 -2.395,53.246 -0.609,0.588 -0.598,0.259 -0.327,0 0,0"
             style="fill:#ffffff;fill-opacity:1;fill-rule:nonzero;stroke:none"
             id="path104" />
        </g>
        <g
           id="g106"
           transform="translate(439.4014,194.604)">
          <path
             d="m 0,0 -7.163,4.136 c 0,0 -1.219,14.793 6.035,32.764 6.314,15.645 21.981,28.625 29.86,25.897 7.88,-2.727 7.684,-8.315 3.842,-14.176 C 28.732,42.76 5.36,28.789 0,0"
             style="fill:#27debf;fill-opacity:1;fill-rule:nonzero;stroke:none"
             id="path108" />
        </g>
        <g
           id="g110"
           transform="translate(435.623,196.1758)">
          <path
             d="m 0,0 h 0.003 c 0.336,0.002 0.608,0.275 0.606,0.612 -0.141,32.96 30.806,55.237 31.12,55.458 0.274,0.195 0.339,0.575 0.145,0.85 -0.192,0.273 -0.572,0.342 -0.85,0.144 C 30.707,56.84 -0.754,34.194 -0.609,0.606 -0.607,0.271 -0.335,0 0,0"
             style="fill:#ffffff;fill-opacity:1;fill-rule:nonzero;stroke:none"
             id="path112" />
        </g>
      </g>
    </g>
    <g
       id="g114">
      <g
         id="g116"
         clip-path="url(#clipPath120)">
        <g
           id="g122"
           transform="translate(342.085,71.9092)">
          <path
             d="m 0,0 c -79.01,35.885 -147.873,75.763 -207.77,119.956 -6.179,5.137 -4.551,10.236 0.958,13.417 5.51,3.181 14.738,3.011 20.611,-0.38 L 21.983,12.798 C 27.856,9.407 28.151,4.08 22.642,0.898 17.132,-2.283 8.412,-3.288 0,0"
             style="fill:#e0e0e0;fill-opacity:1;fill-rule:nonzero;stroke:none"
             id="path124" />
        </g>
        <g
           id="g126"
           transform="translate(272.9902,160.291)">
          <path
             d="m 0,0 c 20.065,-11.585 20.065,-30.368 0,-41.953 -20.066,-11.585 -52.6,-11.585 -72.665,0 -20.066,11.585 -20.066,30.368 0,41.953 C -52.599,11.585 -20.066,11.585 0,0"
             style="fill:#e0e0e0;fill-opacity:1;fill-rule:nonzero;stroke:none"
             id="path128" />
        </g>
      </g>
    </g>
    <g
       id="g130">
      <g
         id="g132"
         clip-path="url(#clipPath136)">
        <g
           id="g138"
           transform="translate(432.0889,439.9092)">
          <path
             d="m 0,0 c 0,-14.033 -11.376,-25.409 -25.409,-25.409 -14.033,0 -25.409,11.376 -25.409,25.409 0,14.033 11.376,25.41 25.409,25.41 C -11.376,25.41 0,14.033 0,0"
             style="fill:#f0997a;fill-opacity:1;fill-rule:nonzero;stroke:none"
             id="path140" />
        </g>
      </g>
    </g>
    <g
       id="g142">
      <g
         id="g144"
         clip-path="url(#clipPath148)">
        <g
           id="g150"
           transform="translate(253.5957,194.9683)">
          <path
             d="m 0,0 -9.804,5.66 c -0.544,0.314 -1.213,0.314 -1.757,0 l -13.656,-7.885 c -0.544,-0.314 -0.878,-0.893 -0.878,-1.521 v -0.878 c 0,-0.627 0.334,-1.207 0.878,-1.52 l 9.823,-5.672 c 0.544,-0.314 1.215,-0.314 1.758,0.001 L 0.002,-3.92 c 0.542,0.314 0.876,0.893 0.876,1.52 v 0.879 C 0.878,-0.894 0.543,-0.313 0,0"
             style="fill:#27debf;fill-opacity:1;fill-rule:nonzero;stroke:none"
             id="path152" />
        </g>
        <g
           id="g154">
          <g
             id="g156" />
          <g
             id="g168">
            <g
               clip-path="url(#clipPath160)"
               opacity="0.199997"
               id="g166">
              <g
                 transform="translate(253.5957,194.9683)"
                 id="g164">
                <path
                   d="m 0,0 -9.804,5.66 c -0.544,0.314 -1.213,0.314 -1.757,0 l -13.656,-7.885 c -0.544,-0.314 -0.878,-0.893 -0.878,-1.521 v -0.878 c 0,-0.627 0.334,-1.207 0.878,-1.52 l 9.823,-5.672 c 0.544,-0.314 1.215,-0.314 1.758,0.001 L 0.002,-3.92 c 0.542,0.314 0.876,0.893 0.876,1.52 v 0.879 C 0.878,-0.894 0.543,-0.313 0,0"
                   style="fill:#000000;fill-opacity:1;fill-rule:nonzero;stroke:none"
                   id="path162" />
              </g>
            </g>
          </g>
        </g>
        <g
           id="g170"
           transform="translate(238.2646,186.022)">
          <path
             d="M 0,0 C 0.505,-0.292 1.128,-0.292 1.633,0.001 L 15.974,8.303 C 15.822,8.566 15.603,8.79 15.331,8.946 l -2.739,1.581 -7.066,4.079 c -0.543,0.314 -1.212,0.314 -1.755,0 L 2.116,13.651 -9.886,6.722 c -0.272,-0.157 -0.491,-0.381 -0.643,-0.643 z"
             style="fill:#27debf;fill-opacity:1;fill-rule:nonzero;stroke:none"
             id="path172" />
        </g>
        <g
           id="g174"
           transform="translate(234.3662,208.7236)">
          <path
             d="M 0,0 9.409,-4.847 21.403,12.254 7.45,19.875 Z"
             style="fill:#ffa8a7;fill-opacity:1;fill-rule:nonzero;stroke:none"
             id="path176" />
        </g>
        <g
           id="g178"
           transform="translate(260.5137,180.3237)">
          <path
             d="m 0,0 c 0.004,-0.822 -0.684,-2.036 -1.44,-2.654 -0.758,-0.617 -6.034,-0.999 -11.474,2.034 -5.44,3.033 -8.231,7.119 -9.703,9.55 -1.472,2.43 -3.578,3.748 -6.286,5.222 -2.707,1.473 -5.706,4.587 -5.701,6.177 0.003,1.589 1.765,3.499 1.765,3.499 z"
             style="fill:#37474f;fill-opacity:1;fill-rule:nonzero;stroke:none"
             id="path180" />
        </g>
        <g
           id="g182"
           transform="translate(246.1187,208.5728)">
          <path
             d="m 0,0 c 0.161,-0.038 0.324,-0.077 0.488,-0.118 0.267,-0.067 0.544,-0.138 0.76,-0.31 0.245,-0.196 0.379,-0.497 0.473,-0.796 0.294,-0.943 0.263,-1.95 0.371,-2.932 0.27,-2.478 1.991,-5.236 4.006,-7.964 1.37,-1.854 2.807,-3.468 4.3,-5.216 1.522,-1.783 3.838,-3.526 4.869,-5.26 1.504,-2.528 0.025,-6.397 -3.184,-6.685 -2.768,-0.249 -9.122,1.066 -14.303,5.585 -2.822,2.462 -4.795,7.651 -8.913,10.006 -2.619,1.497 -7.401,4.69 -8.177,7.582 -0.214,1.221 2.02,3.716 3.914,5.888 2.066,2.37 4.819,6.291 5.612,5.622 C -10,4.847 -9.973,4.689 -9.793,4.157 c 0.172,-0.505 0.519,-0.939 0.737,-1.424 0.401,-0.891 0.431,-1.898 0.482,-2.874 0.022,-0.423 0.068,-0.883 0.377,-1.202 0.377,-0.388 0.857,-0.261 1.345,-0.266 0.614,-0.007 1.223,-0.243 1.68,-0.652 0.204,0.567 0.361,1.149 0.472,1.741 0.035,0.191 0.072,0.395 0.204,0.537 0.135,0.144 0.34,0.193 0.534,0.227 C -2.567,0.484 -1.325,0.308 0,0"
             style="fill:#455a64;fill-opacity:1;fill-rule:nonzero;stroke:none"
             id="path184" />
        </g>
        <g
           id="g186"
           transform="translate(250.3755,199.1313)">
          <path
             d="M 0,0 C 0,0 0.102,1.228 -1.374,2.293 -2.502,3.108 -5.119,3.228 -7.006,2.75 -7.778,2.555 -8.117,1.65 -7.65,1.004 -7.373,0.62 -6.888,0.457 -6.431,0.586 -5.175,0.94 -2.512,1.405 0,0"
             style="fill:#f5f5f5;fill-opacity:1;fill-rule:nonzero;stroke:none"
             id="path188" />
        </g>
        <g
           id="g190"
           transform="translate(253.1963,195.1724)">
          <path
             d="m 0,0 c 0,0 -0.209,1.627 -1.801,2.35 0,0 -3.275,1.433 -6.156,0.513 C -8.691,2.628 -9.038,1.802 -8.585,1.178 v 0 C -8.316,0.807 -7.848,0.65 -7.408,0.781 -6.127,1.16 -3.522,1.997 0,0"
             style="fill:#f5f5f5;fill-opacity:1;fill-rule:nonzero;stroke:none"
             id="path192" />
        </g>
        <g
           id="g194"
           transform="translate(256.5166,191.2363)">
          <path
             d="m 0,0 c 0,0 -0.356,1.552 -1.948,2.275 0,0 -3.065,1.309 -5.945,0.389 C -8.627,2.43 -8.975,1.604 -8.521,0.979 -8.252,0.608 -7.784,0.451 -7.344,0.582 -6.063,0.96 -3.522,1.998 0,0"
             style="fill:#f5f5f5;fill-opacity:1;fill-rule:nonzero;stroke:none"
             id="path196" />
        </g>
        <g
           id="g198"
           transform="translate(262.9971,302.6914)">
          <path
             d="m 0,0 c 0,0 16.048,-27.319 20.946,-37.362 4.32,-8.856 5.703,-13.219 -6.195,-25.265 -11.96,-12.11 -26.909,-27.039 -26.909,-27.039 0,0 -7.64,-0.258 -9.852,6.674 3.853,10.297 10.929,28.922 20.933,33.372 l -19.235,24.838 z"
             style="fill:#263238;fill-opacity:1;fill-rule:nonzero;stroke:none"
             id="path200" />
        </g>
        <g
           id="g202"
           transform="translate(323.5117,137.0903)">
          <path
             d="m 0,0 c -0.55,0 -1.073,0.321 -1.306,0.857 l -8.703,20.061 c -0.028,0.065 -0.052,0.132 -0.069,0.2 l -15.997,60.069 c -0.203,0.758 0.249,1.538 1.009,1.74 0.754,0.208 1.539,-0.248 1.741,-1.009 L -7.355,21.953 1.305,1.989 C 1.617,1.269 1.287,0.43 0.565,0.118 0.381,0.038 0.189,0 0,0"
             style="fill:#27debf;fill-opacity:1;fill-rule:nonzero;stroke:none"
             id="path204" />
        </g>
        <g
           id="g206">
          <g
             id="g208" />
          <g
             id="g220">
            <g
               clip-path="url(#clipPath212)"
               opacity="0.5"
               id="g218">
              <g
                 transform="translate(323.5117,137.0903)"
                 id="g216">
                <path
                   d="m 0,0 c -0.55,0 -1.073,0.321 -1.306,0.857 l -8.703,20.061 c -0.028,0.065 -0.052,0.132 -0.069,0.2 l -15.997,60.069 c -0.203,0.758 0.249,1.538 1.009,1.74 0.754,0.208 1.539,-0.248 1.741,-1.009 L -7.355,21.953 1.305,1.989 C 1.617,1.269 1.287,0.43 0.565,0.118 0.381,0.038 0.189,0 0,0"
                   style="fill:#000000;fill-opacity:1;fill-rule:nonzero;stroke:none"
                   id="path214" />
              </g>
            </g>
          </g>
        </g>
        <g
           id="g222"
           transform="translate(321.2783,97.3384)">
          <path
             d="m 0,0 c -19.152,11.061 -34.682,37.955 -34.682,60.067 0,22.122 15.53,31.086 34.682,20.026 C 19.153,69.032 34.682,42.138 34.682,20.025 34.682,-2.097 19.153,-11.061 0,0 m 9.012,92.681 -2.618,1.518 c -6.444,3.72 -12.538,5.514 -17.964,5.59 l 0.008,0.008 c -0.161,0 -0.319,-0.009 -0.478,-0.012 -0.955,-0.004 -1.894,-0.052 -2.804,-0.163 -8.54,-0.906 -16.032,-5.304 -21.035,-11.736 -0.097,-0.118 -0.196,-0.234 -0.292,-0.356 -0.181,-0.218 -0.351,-0.437 -0.503,-0.664 -0.114,-0.152 -0.218,-0.304 -0.322,-0.456 -0.143,-0.189 -0.266,-0.379 -0.39,-0.569 -0.236,-0.37 -0.473,-0.74 -0.692,-1.129 -0.075,-0.132 -0.151,-0.275 -0.236,-0.417 -0.105,-0.18 -0.201,-0.37 -0.304,-0.569 -0.011,-0.021 -0.022,-0.042 -0.032,-0.063 -2.369,-4.367 -3.712,-9.371 -3.707,-14.688 l 10e-4,-1.224 c -0.019,-0.56 -0.029,-1.139 -0.029,-1.717 V 63.008 C -42.385,36.807 -24,4.952 -1.309,-8.139 L 1.31,-9.657 c 6.446,-3.72 12.535,-5.513 17.964,-5.592 l -0.008,-0.01 c 0.054,0 0.108,0.004 0.163,0.004 0.072,0 0.146,-0.009 0.217,-0.009 0.361,0 0.711,0.01 1.063,0.029 0.123,0 0.228,0 0.341,0.009 0.304,0.019 0.607,0.038 0.911,0.076 0.161,0.01 0.312,0.029 0.455,0.048 0.082,0.007 0.16,0.023 0.241,0.033 8.823,0.966 16.523,5.654 21.5,12.463 0.216,0.286 0.424,0.583 0.629,0.884 l 0.073,0.108 c 0.236,0.349 0.466,0.704 0.688,1.072 2.878,4.687 4.541,10.201 4.541,16.105 v 2.945 3.026 c 0,26.201 -18.385,58.056 -41.076,71.147"
             style="fill:#455a64;fill-opacity:1;fill-rule:nonzero;stroke:none"
             id="path224" />
        </g>
        <g
           id="g226"
           transform="translate(321.2783,97.3384)">
          <path
             d="m 0,0 c -19.152,11.061 -34.682,37.955 -34.682,60.067 0,22.122 15.53,31.086 34.682,20.026 C 19.153,69.032 34.682,42.138 34.682,20.025 34.682,-2.097 19.153,-11.061 0,0 m 1.31,88.232 -2.619,1.518 c -11.222,6.479 -21.391,7.152 -28.81,3.007 -0.19,-0.105 -0.379,-0.218 -0.568,-0.342 -0.048,-0.028 -0.096,-0.057 -0.143,-0.085 -0.228,-0.142 -0.446,-0.275 -0.664,-0.427 -0.219,-0.142 -0.437,-0.294 -0.646,-0.455 -0.426,-0.304 -0.843,-0.627 -1.242,-0.987 -0.199,-0.171 -0.398,-0.351 -0.588,-0.531 -0.398,-0.361 -0.778,-0.74 -1.138,-1.148 -0.191,-0.199 -0.371,-0.408 -0.541,-0.616 -0.18,-0.209 -0.351,-0.418 -0.522,-0.636 -0.181,-0.218 -0.351,-0.437 -0.503,-0.664 -0.114,-0.152 -0.218,-0.304 -0.322,-0.456 -0.143,-0.189 -0.266,-0.379 -0.39,-0.569 -0.236,-0.37 -0.473,-0.74 -0.692,-1.129 -0.075,-0.132 -0.151,-0.275 -0.236,-0.417 -0.105,-0.18 -0.201,-0.37 -0.304,-0.569 -0.095,-0.19 -0.191,-0.38 -0.285,-0.569 -0.341,-0.693 -0.664,-1.414 -0.949,-2.163 -0.161,-0.399 -0.313,-0.797 -0.446,-1.205 -0.009,-0.019 -0.018,-0.028 -0.018,-0.047 -0.256,-0.741 -0.485,-1.509 -0.693,-2.296 -0.114,-0.427 -0.219,-0.854 -0.323,-1.3 -0.113,-0.493 -0.218,-1.005 -0.313,-1.518 -0.038,-0.237 -0.085,-0.483 -0.123,-0.73 -0.076,-0.418 -0.132,-0.844 -0.19,-1.271 -0.066,-0.475 -0.123,-0.949 -0.171,-1.442 -0.009,-0.076 -0.018,-0.162 -0.028,-0.237 -0.037,-0.418 -0.075,-0.835 -0.104,-1.262 -0.01,-0.171 -0.019,-0.341 -0.029,-0.512 -0.028,-0.465 -0.057,-0.939 -0.066,-1.423 -0.019,-0.56 -0.029,-1.139 -0.029,-1.717 V 63.008 C -42.385,36.807 -24,4.952 -1.309,-8.139 L 1.31,-9.657 c 6.592,-3.804 12.815,-5.607 18.336,-5.607 0.361,0 0.711,0.01 1.063,0.029 0.123,0 0.228,0 0.341,0.009 0.304,0.019 0.607,0.038 0.911,0.076 0.161,0.01 0.312,0.029 0.455,0.048 0.304,0.028 0.607,0.076 0.901,0.123 0.276,0.038 0.541,0.085 0.797,0.143 0.266,0.047 0.522,0.094 0.769,0.161 0.493,0.113 0.976,0.246 1.441,0.398 0.199,0.057 0.399,0.123 0.598,0.19 0.227,0.076 0.446,0.151 0.655,0.237 0.19,0.076 0.37,0.142 0.55,0.227 0.398,0.162 0.787,0.332 1.167,0.532 0.189,0.085 0.379,0.19 0.569,0.294 0.047,0.028 0.095,0.057 0.152,0.085 0.076,0.029 0.142,0.076 0.217,0.124 0.124,0.056 0.238,0.132 0.362,0.199 7.295,4.354 11.791,13.489 11.791,26.448 v 3.026 c 0,26.201 -18.394,58.056 -41.075,71.147"
             style="fill:#37474f;fill-opacity:1;fill-rule:nonzero;stroke:none"
             id="path228" />
        </g>
        <g
           id="g230"
           transform="translate(347.0713,103.0112)">
          <path
             d="m 0,0 c -5.482,-6.527 -14.988,-7.457 -25.793,-1.224 -17.027,9.828 -30.83,33.733 -30.83,53.398 0,8.784 2.761,15.235 7.333,18.812 -3.188,-3.766 -5.037,-9.392 -5.037,-16.592 0,-19.655 13.802,-43.561 30.83,-53.398 C -14.087,-4.44 -5.653,-4.43 0,0"
             style="fill:#27debf;fill-opacity:1;fill-rule:nonzero;stroke:none"
             id="path232" />
        </g>
        <g
           id="g234">
          <g
             id="g236" />
          <g
             id="g248">
            <g
               clip-path="url(#clipPath240)"
               opacity="0.199997"
               id="g246">
              <g
                 transform="translate(347.0713,103.0112)"
                 id="g244">
                <path
                   d="m 0,0 c -5.482,-6.527 -14.988,-7.457 -25.793,-1.224 -17.027,9.828 -30.83,33.733 -30.83,53.398 0,8.784 2.761,15.235 7.333,18.812 -3.188,-3.766 -5.037,-9.392 -5.037,-16.592 0,-19.655 13.802,-43.561 30.83,-53.398 C -14.087,-4.44 -5.653,-4.43 0,0"
                   style="fill:#000000;fill-opacity:1;fill-rule:nonzero;stroke:none"
                   id="path242" />
              </g>
            </g>
          </g>
        </g>
        <g
           id="g250"
           transform="translate(321.2773,101.7891)">
          <path
             d="M 0,0 C -17.025,9.83 -30.827,33.734 -30.827,53.394 -30.827,73.053 -17.025,81.021 0,71.191 17.025,61.362 30.827,37.457 30.826,17.798 30.826,-1.861 17.024,-9.829 0,0 m -0.001,75.641 c -19.153,11.059 -34.681,2.095 -34.681,-20.022 0,-22.117 15.528,-49.011 34.681,-60.069 19.153,-11.059 34.681,-2.094 34.681,20.022 0,22.116 -15.527,49.011 -34.681,60.069"
             style="fill:#27debf;fill-opacity:1;fill-rule:nonzero;stroke:none"
             id="path252" />
        </g>
        <g
           id="g254"
           transform="translate(351.0635,129.3672)">
          <path
             d="m 0,0 c -0.07,0.348 -0.147,0.695 -0.225,1.043 l -26.852,7.196 23.992,2.142 c -0.119,0.307 -0.233,0.615 -0.357,0.921 L -27.688,9.137 -7.949,20.533 c -0.158,0.274 -0.322,0.544 -0.484,0.816 l -19.73,-11.391 13.927,19.813 c -0.205,0.258 -0.411,0.515 -0.619,0.769 l -13.78,-19.603 7.125,26.59 c -0.263,0.237 -0.527,0.474 -0.794,0.705 l -7.008,-26.153 v 31.247 c -0.159,0.094 -0.315,0.195 -0.474,0.287 -0.159,0.092 -0.316,0.172 -0.475,0.261 V 13.159 l -6.891,33.677 c -0.345,0.101 -0.686,0.191 -1.027,0.276 l 6.8,-33.223 -13.156,33.907 c -0.332,-0.018 -0.659,-0.049 -0.984,-0.085 l 13.061,-33.662 -18.504,32.05 c -0.281,-0.145 -0.559,-0.296 -0.83,-0.458 L -33.28,13.577 -56.017,41.86 c -0.198,-0.256 -0.388,-0.525 -0.576,-0.797 l 22.912,-28.502 -25.634,22.731 c -0.102,-0.332 -0.201,-0.667 -0.29,-1.011 l 26.001,-23.056 -26.987,15.58 c -0.008,-0.329 -0.022,-0.653 -0.022,-0.99 0,-0.03 0.002,-0.062 0.002,-0.093 l 27.467,-15.857 -26.613,7.131 c 0.065,-0.346 0.13,-0.691 0.2,-1.038 l 27.062,-7.25 -24.333,-2.173 c 0.114,-0.308 0.236,-0.614 0.355,-0.921 L -31.884,7.81 -52.008,-3.809 c 0.154,-0.275 0.306,-0.553 0.464,-0.826 l 20.135,11.624 -14.27,-20.3 c 0.204,-0.259 0.412,-0.513 0.619,-0.769 l 14.123,20.091 -7.323,-27.324 c 0.264,-0.239 0.526,-0.482 0.792,-0.715 l 7.207,26.897 v -32.16 c 0.159,-0.094 0.316,-0.195 0.475,-0.287 0.159,-0.092 0.315,-0.172 0.474,-0.26 V 3.788 l 7.09,-34.65 c 0.344,-0.098 0.684,-0.181 1.024,-0.264 l -6.995,34.184 13.498,-34.789 c 0.329,0.024 0.658,0.05 0.98,0.092 l -13.399,34.537 18.907,-32.75 c 0.276,0.154 0.546,0.32 0.811,0.491 L -26.292,3.37 -3.205,-25.351 c 0.191,0.267 0.382,0.534 0.562,0.815 L -25.892,4.386 -0.049,-18.53 c 0.093,0.339 0.178,0.686 0.26,1.038 L -25.968,5.722 1.038,-9.871 c 0,0.031 0.002,0.06 0.002,0.091 0,0.336 -0.014,0.676 -0.021,1.015 L -26.429,7.082 Z"
             style="fill:#ebebeb;fill-opacity:1;fill-rule:nonzero;stroke:none"
             id="path256" />
        </g>
        <g
           id="g258"
           transform="translate(329.0283,134.0215)">
          <path
             d="m 0,0 c -2.514,3.358 -3.51,2.201 -4.116,3.994 -0.295,0.869 0.099,1.74 0.815,2.409 C -1.955,6.806 -0.447,6.576 0.342,5.18 1.567,3 2.25,-0.973 2.309,-3.44 1.707,-2.543 0.957,-1.268 0,0 m -5.644,-7.598 c -1.205,1.1 0.133,2.172 0.749,4.449 0.383,1.41 0.172,2.5 -0.032,3.313 2.366,-1.866 5.919,-6.773 5.003,-8.227 -0.032,-0.052 -0.078,-0.096 -0.116,-0.145 -1.985,-0.521 -4.762,-0.172 -5.604,0.61 m -6.536,18.327 c 0.97,-3.495 2.433,-4.03 2.527,-5.169 -2.274,0.367 -5.969,2.578 -6.217,4.771 -0.237,2.045 0.874,4.484 1.998,5.865 0.963,-0.423 0.899,-2.607 1.692,-5.467 M -3.405,9.202 C -3.591,9.136 -3.754,9.061 -3.899,8.979 -4.222,8.797 -5.525,8.054 -5.673,7.97 -6.114,7.72 -6.381,7.405 -6.559,7.087 c -1.486,1.517 -3.214,6.362 -3.078,8.641 2.591,-0.886 6.895,-4.483 7.56,-5.872 C -2.018,9.731 -1.98,9.624 -1.954,9.524 -2.414,9.462 -2.915,9.376 -3.405,9.202 M -9.268,-4.496 c -1.982,1.546 -4.759,6.223 -5.853,8.833 0.601,-0.403 1.29,-0.856 2.02,-1.235 3.008,-1.556 2.932,0.55 4.156,-0.911 1.173,-1.388 0.991,-5.048 0.032,-6.899 -0.116,0.051 -0.233,0.117 -0.355,0.212 m 3.301,22.217 c -3.282,1.897 -6.232,2.01 -8.338,0.692 -0.434,-0.275 -0.964,-0.514 -1.523,-0.847 -0.156,-0.086 -0.301,-0.188 -0.448,-0.289 -0.027,-0.018 -0.052,-0.031 -0.078,-0.049 -0.009,-0.008 -0.018,-0.017 -0.028,-0.024 -0.197,-0.142 -0.386,-0.298 -0.566,-0.468 -0.041,-0.038 -0.08,-0.077 -0.12,-0.116 -0.16,-0.159 -0.312,-0.327 -0.456,-0.507 -0.054,-0.067 -0.105,-0.136 -0.156,-0.206 -0.125,-0.169 -0.244,-0.343 -0.355,-0.529 -0.061,-0.1 -0.116,-0.207 -0.173,-0.313 -0.092,-0.173 -0.184,-0.347 -0.265,-0.533 -0.061,-0.139 -0.114,-0.288 -0.169,-0.434 -0.064,-0.173 -0.13,-0.344 -0.186,-0.527 -0.056,-0.182 -0.099,-0.377 -0.146,-0.569 -0.04,-0.167 -0.085,-0.328 -0.118,-0.502 -0.046,-0.241 -0.076,-0.498 -0.107,-0.752 -0.018,-0.144 -0.044,-0.28 -0.057,-0.427 -0.037,-0.412 -0.057,-0.84 -0.057,-1.284 0,-7.371 5.179,-16.336 11.563,-20.026 0.399,-0.23 0.794,-0.434 1.183,-0.613 0.233,-0.106 0.46,-0.187 0.688,-0.275 0.155,-0.061 0.316,-0.135 0.469,-0.187 0.158,-0.053 0.31,-0.085 0.467,-0.13 0.219,-0.064 0.442,-0.135 0.657,-0.181 0.087,-0.019 0.169,-0.024 0.255,-0.04 0.28,-0.051 0.559,-0.099 0.829,-0.121 0.019,-0.001 0.037,0 0.056,-0.001 1.432,-0.107 2.708,0.205 3.768,0.882 0.561,0.329 1.059,0.572 1.693,0.951 2.03,1.224 3.283,3.785 3.283,7.399 0,7.371 -5.18,16.335 -11.565,20.026"
             style="fill:#e0e0e0;fill-opacity:1;fill-rule:nonzero;stroke:none"
             id="path260" />
        </g>
        <g
           id="g262">
          <g
             id="g264" />
          <g
             id="g276">
            <g
               clip-path="url(#clipPath268)"
               opacity="0.199997"
               id="g274">
              <g
                 transform="translate(329.0283,134.0215)"
                 id="g272">
                <path
                   d="m 0,0 c -2.514,3.358 -3.51,2.201 -4.116,3.994 -0.295,0.869 0.099,1.74 0.815,2.409 C -1.955,6.806 -0.447,6.576 0.342,5.18 1.567,3 2.25,-0.973 2.309,-3.44 1.707,-2.543 0.957,-1.268 0,0 m -5.644,-7.598 c -1.205,1.1 0.133,2.172 0.749,4.449 0.383,1.41 0.172,2.5 -0.032,3.313 2.366,-1.866 5.919,-6.773 5.003,-8.227 -0.032,-0.052 -0.078,-0.096 -0.116,-0.145 -1.985,-0.521 -4.762,-0.172 -5.604,0.61 m -6.536,18.327 c 0.97,-3.495 2.433,-4.03 2.527,-5.169 -2.274,0.367 -5.969,2.578 -6.217,4.771 -0.237,2.045 0.874,4.484 1.998,5.865 0.963,-0.423 0.899,-2.607 1.692,-5.467 M -3.405,9.202 C -3.591,9.136 -3.754,9.061 -3.899,8.979 -4.222,8.797 -5.525,8.054 -5.673,7.97 -6.114,7.72 -6.381,7.405 -6.559,7.087 c -1.486,1.517 -3.214,6.362 -3.078,8.641 2.591,-0.886 6.895,-4.483 7.56,-5.872 C -2.018,9.731 -1.98,9.624 -1.954,9.524 -2.414,9.462 -2.915,9.376 -3.405,9.202 M -9.268,-4.496 c -1.982,1.546 -4.759,6.223 -5.853,8.833 0.601,-0.403 1.29,-0.856 2.02,-1.235 3.008,-1.556 2.932,0.55 4.156,-0.911 1.173,-1.388 0.991,-5.048 0.032,-6.899 -0.116,0.051 -0.233,0.117 -0.355,0.212 m 3.301,22.217 c -3.282,1.897 -6.232,2.01 -8.338,0.692 -0.434,-0.275 -0.964,-0.514 -1.523,-0.847 -0.156,-0.086 -0.301,-0.188 -0.448,-0.289 -0.027,-0.018 -0.052,-0.031 -0.078,-0.049 -0.009,-0.008 -0.018,-0.017 -0.028,-0.024 -0.197,-0.142 -0.386,-0.298 -0.566,-0.468 -0.041,-0.038 -0.08,-0.077 -0.12,-0.116 -0.16,-0.159 -0.312,-0.327 -0.456,-0.507 -0.054,-0.067 -0.105,-0.136 -0.156,-0.206 -0.125,-0.169 -0.244,-0.343 -0.355,-0.529 -0.061,-0.1 -0.116,-0.207 -0.173,-0.313 -0.092,-0.173 -0.184,-0.347 -0.265,-0.533 -0.061,-0.139 -0.114,-0.288 -0.169,-0.434 -0.064,-0.173 -0.13,-0.344 -0.186,-0.527 -0.056,-0.182 -0.099,-0.377 -0.146,-0.569 -0.04,-0.167 -0.085,-0.328 -0.118,-0.502 -0.046,-0.241 -0.076,-0.498 -0.107,-0.752 -0.018,-0.144 -0.044,-0.28 -0.057,-0.427 -0.037,-0.412 -0.057,-0.84 -0.057,-1.284 0,-7.371 5.179,-16.336 11.563,-20.026 0.399,-0.23 0.794,-0.434 1.183,-0.613 0.233,-0.106 0.46,-0.187 0.688,-0.275 0.155,-0.061 0.316,-0.135 0.469,-0.187 0.158,-0.053 0.31,-0.085 0.467,-0.13 0.219,-0.064 0.442,-0.135 0.657,-0.181 0.087,-0.019 0.169,-0.024 0.255,-0.04 0.28,-0.051 0.559,-0.099 0.829,-0.121 0.019,-0.001 0.037,0 0.056,-0.001 1.432,-0.107 2.708,0.205 3.768,0.882 0.561,0.329 1.059,0.572 1.693,0.951 2.03,1.224 3.283,3.785 3.283,7.399 0,7.371 -5.18,16.335 -11.565,20.026"
                   style="fill:#000000;fill-opacity:1;fill-rule:nonzero;stroke:none"
                   id="path270" />
              </g>
            </g>
          </g>
        </g>
        <g
           id="g278"
           transform="translate(327.2646,133.0259)">
          <path
             d="M 0,0 C -2.515,3.349 -3.511,2.201 -4.117,3.994 -5.019,6.612 0.341,9.296 2.105,6.175 3.86,3.054 4.506,-3.757 3.794,-4.535 3.083,-5.312 1.982,-2.637 0,0 m 1.84,-7.067 c -1.195,-1.898 -6.289,-1.641 -7.494,-0.541 -1.196,1.109 0.142,2.172 0.758,4.459 0.779,2.893 -0.938,4.448 0.058,4.989 1.451,0.787 7.873,-7.01 6.678,-8.907 m -11.118,2.57 c -2.494,1.945 -6.289,8.908 -6.318,10.369 -0.028,1.461 1.898,-0.55 4.259,-1.774 3.008,-1.556 2.932,0.55 4.155,-0.911 1.803,-2.134 0.409,-9.638 -2.096,-7.684 m -3.017,21.771 c 1.177,-0.199 1.034,-2.504 1.879,-5.549 1.071,-3.861 2.751,-4.108 2.514,-5.55 -0.352,-2.115 -7.627,1.044 -7.979,4.156 -0.35,3.102 2.41,7.152 3.586,6.943 m 3.443,-0.351 c 2.288,-0.028 7.78,-4.487 8.539,-6.071 C 0.445,9.258 -1.565,9.847 -3.406,9.192 -5.749,8.367 -4.639,6.1 -6.015,6.668 c -2.01,0.835 -5.113,10.293 -2.837,10.255 m 2.866,0.787 c -6.384,3.681 -11.564,0.693 -11.564,-6.678 0,-7.37 5.18,-16.335 11.564,-20.025 6.384,-3.681 11.554,-0.693 11.554,6.678 0,7.371 -5.17,16.336 -11.554,20.025"
             style="fill:#e0e0e0;fill-opacity:1;fill-rule:nonzero;stroke:none"
             id="path280" />
        </g>
        <g
           id="g282"
           transform="translate(321.2773,133.3013)">
          <path
             d="M 0,0 C 1.952,-1.128 3.536,-0.214 3.536,2.042 3.536,4.296 1.952,7.039 0,8.167 -1.953,9.294 -3.537,8.38 -3.537,6.125 -3.537,3.87 -1.953,1.127 0,0"
             style="fill:#455a64;fill-opacity:1;fill-rule:nonzero;stroke:none"
             id="path284" />
        </g>
        <g
           id="g286"
           transform="translate(171.0186,184.0889)">
          <path
             d="m 0,0 c -19.152,11.061 -34.682,37.955 -34.682,60.067 0,22.122 15.53,31.087 34.682,20.026 C 19.153,69.032 34.682,42.138 34.682,20.026 34.682,-2.096 19.153,-11.061 0,0 m 9.012,92.681 -2.618,1.518 c -6.444,3.72 -12.538,5.514 -17.964,5.59 l 0.008,0.009 c -0.16,0 -0.318,-0.01 -0.478,-0.012 -0.955,-0.005 -1.893,-0.053 -2.803,-0.164 -8.541,-0.905 -16.033,-5.304 -21.035,-11.736 -0.098,-0.118 -0.197,-0.234 -0.293,-0.356 -0.18,-0.218 -0.351,-0.436 -0.503,-0.664 -0.114,-0.152 -0.218,-0.303 -0.322,-0.455 -0.143,-0.19 -0.266,-0.38 -0.389,-0.57 -0.237,-0.369 -0.474,-0.739 -0.693,-1.128 -0.076,-0.133 -0.151,-0.275 -0.237,-0.418 -0.104,-0.18 -0.199,-0.37 -0.303,-0.569 -0.011,-0.021 -0.022,-0.042 -0.032,-0.063 -2.369,-4.367 -3.712,-9.371 -3.707,-14.688 l 10e-4,-1.224 c -0.019,-0.56 -0.028,-1.138 -0.028,-1.717 V 63.008 C -42.384,36.807 -24,4.952 -1.309,-8.139 L 1.31,-9.657 c 6.446,-3.719 12.535,-5.513 17.964,-5.591 l -0.008,-0.011 c 0.054,0 0.109,0.004 0.163,0.005 0.072,-0.001 0.146,-0.009 0.217,-0.009 0.361,0 0.712,0.009 1.063,0.028 0.123,0 0.228,0 0.341,0.01 0.304,0.018 0.607,0.037 0.911,0.076 0.161,0.009 0.313,0.028 0.456,0.047 0.081,0.008 0.16,0.023 0.241,0.033 8.822,0.966 16.522,5.655 21.499,12.463 0.217,0.286 0.424,0.584 0.63,0.884 l 0.073,0.109 c 0.235,0.348 0.466,0.703 0.686,1.071 2.879,4.688 4.542,10.202 4.542,16.105 v 2.945 3.026 c 0,26.201 -18.384,58.056 -41.076,71.147"
             style="fill:#455a64;fill-opacity:1;fill-rule:nonzero;stroke:none"
             id="path288" />
        </g>
        <g
           id="g290"
           transform="translate(171.0186,184.0889)">
          <path
             d="m 0,0 c -19.152,11.061 -34.682,37.955 -34.682,60.067 0,22.122 15.53,31.087 34.682,20.026 C 19.153,69.032 34.682,42.138 34.682,20.026 34.682,-2.096 19.153,-11.061 0,0 m 1.31,88.232 -2.619,1.518 c -11.222,6.479 -21.392,7.152 -28.81,3.007 -0.19,-0.104 -0.379,-0.218 -0.569,-0.341 -0.047,-0.029 -0.095,-0.058 -0.142,-0.086 -0.228,-0.142 -0.446,-0.275 -0.664,-0.427 -0.218,-0.142 -0.437,-0.294 -0.645,-0.455 -0.427,-0.303 -0.844,-0.626 -1.243,-0.987 -0.199,-0.17 -0.398,-0.351 -0.588,-0.531 -0.399,-0.36 -0.778,-0.74 -1.138,-1.148 -0.19,-0.199 -0.371,-0.407 -0.541,-0.616 -0.181,-0.209 -0.351,-0.417 -0.522,-0.636 -0.18,-0.218 -0.351,-0.436 -0.503,-0.664 -0.114,-0.152 -0.218,-0.303 -0.322,-0.455 -0.143,-0.19 -0.266,-0.38 -0.389,-0.57 -0.237,-0.369 -0.474,-0.739 -0.693,-1.128 -0.076,-0.133 -0.151,-0.275 -0.237,-0.418 -0.104,-0.18 -0.199,-0.37 -0.303,-0.569 -0.095,-0.19 -0.19,-0.379 -0.285,-0.569 -0.342,-0.693 -0.664,-1.413 -0.949,-2.163 -0.161,-0.398 -0.313,-0.797 -0.445,-1.205 -0.01,-0.018 -0.019,-0.028 -0.019,-0.047 -0.257,-0.74 -0.484,-1.509 -0.693,-2.296 -0.114,-0.426 -0.218,-0.854 -0.323,-1.3 -0.113,-0.493 -0.218,-1.005 -0.313,-1.517 -0.038,-0.237 -0.085,-0.484 -0.123,-0.731 -0.076,-0.417 -0.133,-0.844 -0.19,-1.271 -0.066,-0.474 -0.123,-0.948 -0.17,-1.442 -0.01,-0.076 -0.019,-0.161 -0.029,-0.237 -0.038,-0.417 -0.075,-0.835 -0.104,-1.261 -0.01,-0.171 -0.019,-0.342 -0.029,-0.513 -0.028,-0.465 -0.057,-0.939 -0.066,-1.423 -0.019,-0.56 -0.028,-1.138 -0.028,-1.717 V 63.008 C -42.384,36.807 -24,4.952 -1.309,-8.139 L 1.31,-9.657 c 6.592,-3.804 12.815,-5.606 18.336,-5.606 0.361,0 0.712,0.009 1.063,0.028 0.123,0 0.228,0 0.341,0.01 0.304,0.018 0.607,0.037 0.911,0.076 0.161,0.009 0.313,0.028 0.456,0.047 0.303,0.028 0.606,0.076 0.9,0.123 0.276,0.038 0.541,0.086 0.797,0.143 0.266,0.047 0.522,0.095 0.769,0.161 0.493,0.114 0.977,0.247 1.442,0.398 0.199,0.057 0.398,0.124 0.597,0.19 0.228,0.076 0.446,0.152 0.655,0.237 0.19,0.076 0.37,0.142 0.55,0.228 0.398,0.161 0.788,0.332 1.167,0.531 0.189,0.086 0.379,0.19 0.569,0.294 0.048,0.029 0.095,0.057 0.152,0.086 0.076,0.028 0.142,0.076 0.218,0.123 0.123,0.057 0.237,0.133 0.36,0.199 7.296,4.354 11.792,13.49 11.792,26.448 v 3.026 c 0,26.201 -18.394,58.056 -41.075,71.147"
             style="fill:#37474f;fill-opacity:1;fill-rule:nonzero;stroke:none"
             id="path292" />
        </g>
        <g
           id="g294"
           transform="translate(196.812,189.7617)">
          <path
             d="m 0,0 c -5.483,-6.526 -14.988,-7.456 -25.793,-1.224 -17.028,9.828 -30.831,33.734 -30.831,53.399 0,8.784 2.761,15.235 7.333,18.811 -3.187,-3.766 -5.037,-9.391 -5.037,-16.591 0,-19.656 13.803,-43.562 30.83,-53.399 C -14.087,-4.439 -5.654,-4.43 0,0"
             style="fill:#27debf;fill-opacity:1;fill-rule:nonzero;stroke:none"
             id="path296" />
        </g>
        <g
           id="g298">
          <g
             id="g300" />
          <g
             id="g312">
            <g
               clip-path="url(#clipPath304)"
               opacity="0.199997"
               id="g310">
              <g
                 transform="translate(196.812,189.7617)"
                 id="g308">
                <path
                   d="m 0,0 c -5.483,-6.526 -14.988,-7.456 -25.793,-1.224 -17.028,9.828 -30.831,33.734 -30.831,53.399 0,8.784 2.761,15.235 7.333,18.811 -3.187,-3.766 -5.037,-9.391 -5.037,-16.591 0,-19.656 13.803,-43.562 30.83,-53.399 C -14.087,-4.439 -5.654,-4.43 0,0"
                   style="fill:#000000;fill-opacity:1;fill-rule:nonzero;stroke:none"
                   id="path306" />
              </g>
            </g>
          </g>
        </g>
        <g
           id="g314"
           transform="translate(171.0176,188.54)">
          <path
             d="M 0,0 C -17.025,9.829 -30.827,33.734 -30.827,53.394 -30.827,73.053 -17.025,81.021 0,71.191 17.025,61.362 30.827,37.457 30.827,17.798 30.827,-1.861 17.025,-9.83 0,0 m 0,75.641 c -19.154,11.059 -34.682,2.094 -34.681,-20.022 0,-22.118 15.527,-49.011 34.68,-60.07 C 19.153,-15.509 34.68,-6.544 34.68,15.572 34.68,37.688 19.153,64.583 0,75.641"
             style="fill:#27debf;fill-opacity:1;fill-rule:nonzero;stroke:none"
             id="path316" />
        </g>
        <g
           id="g318"
           transform="translate(200.8042,216.1182)">
          <path
             d="m 0,0 c -0.071,0.347 -0.147,0.695 -0.225,1.043 l -26.852,7.196 23.992,2.142 c -0.119,0.307 -0.234,0.615 -0.358,0.921 L -27.689,9.137 -7.95,20.533 c -0.157,0.274 -0.322,0.544 -0.483,0.816 L -28.164,9.958 -14.237,29.771 c -0.205,0.257 -0.41,0.515 -0.619,0.769 l -13.779,-19.604 7.125,26.591 c -0.264,0.237 -0.528,0.474 -0.794,0.705 l -7.008,-26.154 v 31.248 c -0.159,0.094 -0.315,0.195 -0.475,0.287 -0.159,0.092 -0.315,0.172 -0.474,0.26 V 13.159 l -6.892,33.676 c -0.345,0.102 -0.686,0.192 -1.026,0.277 l 6.8,-33.223 -13.156,33.907 c -0.333,-0.018 -0.659,-0.05 -0.984,-0.085 l 13.061,-33.662 -18.504,32.049 c -0.282,-0.144 -0.559,-0.295 -0.83,-0.457 L -33.28,13.577 -56.017,41.86 c -0.198,-0.256 -0.389,-0.525 -0.576,-0.797 l 22.912,-28.502 -25.635,22.731 c -0.101,-0.332 -0.2,-0.667 -0.289,-1.011 l 26.001,-23.056 -26.987,15.58 c -0.009,-0.329 -0.022,-0.654 -0.022,-0.99 0,-0.03 0.002,-0.062 0.002,-0.093 l 27.466,-15.857 -26.612,7.13 c 0.064,-0.345 0.13,-0.69 0.2,-1.037 l 27.061,-7.25 -24.333,-2.173 c 0.115,-0.308 0.237,-0.615 0.356,-0.921 L -31.884,7.81 -52.009,-3.809 c 0.155,-0.275 0.307,-0.553 0.465,-0.826 l 20.135,11.624 -14.27,-20.3 c 0.204,-0.26 0.412,-0.513 0.619,-0.769 l 14.122,20.091 -7.322,-27.324 c 0.263,-0.239 0.525,-0.483 0.791,-0.715 l 7.208,26.897 v -32.16 c 0.159,-0.094 0.315,-0.195 0.474,-0.287 0.16,-0.092 0.316,-0.172 0.475,-0.26 V 3.788 l 7.09,-34.65 c 0.344,-0.098 0.684,-0.181 1.023,-0.264 l -6.995,34.184 13.498,-34.789 c 0.33,0.024 0.659,0.05 0.981,0.092 l -13.4,34.537 18.908,-32.75 c 0.276,0.154 0.545,0.32 0.811,0.491 L -26.292,3.37 -3.206,-25.351 c 0.192,0.266 0.383,0.534 0.563,0.815 L -25.892,4.386 -0.049,-18.53 c 0.092,0.339 0.178,0.686 0.259,1.037 L -25.968,5.722 1.038,-9.871 c 0,0.031 0.002,0.06 0.002,0.091 0,0.336 -0.014,0.676 -0.022,1.015 L -26.429,7.082 Z"
             style="fill:#ebebeb;fill-opacity:1;fill-rule:nonzero;stroke:none"
             id="path320" />
        </g>
        <g
           id="g322"
           transform="translate(178.769,220.7725)">
          <path
             d="m 0,0 c -2.514,3.358 -3.51,2.201 -4.117,3.994 -0.295,0.869 0.1,1.74 0.816,2.409 C -1.955,6.805 -0.448,6.576 0.341,5.18 1.567,3 2.249,-0.973 2.308,-3.44 1.707,-2.543 0.957,-1.268 0,0 m -5.644,-7.599 c -1.205,1.101 0.133,2.173 0.749,4.45 0.383,1.41 0.172,2.5 -0.032,3.312 2.366,-1.865 5.919,-6.772 5.003,-8.226 -0.033,-0.052 -0.078,-0.096 -0.117,-0.145 -1.985,-0.521 -4.762,-0.172 -5.603,0.609 m -6.536,18.328 c 0.97,-3.495 2.432,-4.03 2.527,-5.169 -2.274,0.367 -5.97,2.578 -6.218,4.771 -0.236,2.045 0.875,4.484 1.999,5.865 0.962,-0.423 0.899,-2.607 1.692,-5.467 M -3.406,9.202 C -3.591,9.136 -3.754,9.061 -3.899,8.979 -4.222,8.797 -5.526,8.054 -5.673,7.97 -6.115,7.72 -6.381,7.405 -6.559,7.087 c -1.486,1.517 -3.215,6.362 -3.078,8.641 2.591,-0.886 6.894,-4.483 7.559,-5.872 0.06,-0.125 0.097,-0.232 0.124,-0.332 C -2.414,9.461 -2.916,9.376 -3.406,9.202 M -9.268,-4.497 c -1.982,1.547 -4.76,6.224 -5.854,8.834 0.602,-0.403 1.291,-0.857 2.021,-1.235 3.008,-1.556 2.932,0.55 4.156,-0.911 1.172,-1.388 0.991,-5.048 0.031,-6.899 -0.115,0.051 -0.233,0.117 -0.354,0.211 m 3.301,22.217 c -3.282,1.898 -6.232,2.011 -8.338,0.693 -0.435,-0.275 -0.964,-0.514 -1.524,-0.847 -0.155,-0.086 -0.301,-0.188 -0.448,-0.289 -0.026,-0.018 -0.051,-0.031 -0.077,-0.05 -0.01,-0.007 -0.019,-0.016 -0.028,-0.023 -0.198,-0.142 -0.387,-0.298 -0.567,-0.468 -0.04,-0.038 -0.08,-0.077 -0.12,-0.116 -0.159,-0.159 -0.312,-0.327 -0.456,-0.507 -0.054,-0.067 -0.104,-0.136 -0.156,-0.206 -0.124,-0.169 -0.244,-0.343 -0.355,-0.529 -0.06,-0.1 -0.115,-0.207 -0.172,-0.313 -0.092,-0.173 -0.184,-0.347 -0.265,-0.533 -0.061,-0.139 -0.114,-0.288 -0.169,-0.434 -0.064,-0.174 -0.131,-0.344 -0.186,-0.527 -0.056,-0.182 -0.1,-0.377 -0.146,-0.569 -0.04,-0.167 -0.085,-0.328 -0.118,-0.502 -0.046,-0.241 -0.076,-0.498 -0.108,-0.752 -0.017,-0.144 -0.043,-0.28 -0.056,-0.428 -0.037,-0.412 -0.058,-0.839 -0.058,-1.283 0,-7.371 5.18,-16.336 11.564,-20.026 0.399,-0.23 0.793,-0.434 1.182,-0.613 0.233,-0.107 0.46,-0.187 0.689,-0.275 0.155,-0.061 0.315,-0.135 0.468,-0.187 0.159,-0.054 0.311,-0.086 0.467,-0.131 0.22,-0.063 0.443,-0.134 0.658,-0.18 0.086,-0.019 0.169,-0.024 0.254,-0.04 0.281,-0.051 0.559,-0.099 0.829,-0.121 0.019,-0.001 0.037,0 0.057,-0.001 1.432,-0.107 2.708,0.205 3.768,0.882 0.561,0.328 1.059,0.572 1.693,0.95 2.03,1.224 3.282,3.786 3.282,7.4 0,7.371 -5.18,16.335 -11.564,20.025"
             style="fill:#e0e0e0;fill-opacity:1;fill-rule:nonzero;stroke:none"
             id="path324" />
        </g>
        <g
           id="g326">
          <g
             id="g328" />
          <g
             id="g340">
            <g
               clip-path="url(#clipPath332)"
               opacity="0.199997"
               id="g338">
              <g
                 transform="translate(178.769,220.7725)"
                 id="g336">
                <path
                   d="m 0,0 c -2.514,3.358 -3.51,2.201 -4.117,3.994 -0.295,0.869 0.1,1.74 0.816,2.409 C -1.955,6.805 -0.448,6.576 0.341,5.18 1.567,3 2.249,-0.973 2.308,-3.44 1.707,-2.543 0.957,-1.268 0,0 m -5.644,-7.599 c -1.205,1.101 0.133,2.173 0.749,4.45 0.383,1.41 0.172,2.5 -0.032,3.312 2.366,-1.865 5.919,-6.772 5.003,-8.226 -0.033,-0.052 -0.078,-0.096 -0.117,-0.145 -1.985,-0.521 -4.762,-0.172 -5.603,0.609 m -6.536,18.328 c 0.97,-3.495 2.432,-4.03 2.527,-5.169 -2.274,0.367 -5.97,2.578 -6.218,4.771 -0.236,2.045 0.875,4.484 1.999,5.865 0.962,-0.423 0.899,-2.607 1.692,-5.467 M -3.406,9.202 C -3.591,9.136 -3.754,9.061 -3.899,8.979 -4.222,8.797 -5.526,8.054 -5.673,7.97 -6.115,7.72 -6.381,7.405 -6.559,7.087 c -1.486,1.517 -3.215,6.362 -3.078,8.641 2.591,-0.886 6.894,-4.483 7.559,-5.872 0.06,-0.125 0.097,-0.232 0.124,-0.332 C -2.414,9.461 -2.916,9.376 -3.406,9.202 M -9.268,-4.497 c -1.982,1.547 -4.76,6.224 -5.854,8.834 0.602,-0.403 1.291,-0.857 2.021,-1.235 3.008,-1.556 2.932,0.55 4.156,-0.911 1.172,-1.388 0.991,-5.048 0.031,-6.899 -0.115,0.051 -0.233,0.117 -0.354,0.211 m 3.301,22.217 c -3.282,1.898 -6.232,2.011 -8.338,0.693 -0.435,-0.275 -0.964,-0.514 -1.524,-0.847 -0.155,-0.086 -0.301,-0.188 -0.448,-0.289 -0.026,-0.018 -0.051,-0.031 -0.077,-0.05 -0.01,-0.007 -0.019,-0.016 -0.028,-0.023 -0.198,-0.142 -0.387,-0.298 -0.567,-0.468 -0.04,-0.038 -0.08,-0.077 -0.12,-0.116 -0.159,-0.159 -0.312,-0.327 -0.456,-0.507 -0.054,-0.067 -0.104,-0.136 -0.156,-0.206 -0.124,-0.169 -0.244,-0.343 -0.355,-0.529 -0.06,-0.1 -0.115,-0.207 -0.172,-0.313 -0.092,-0.173 -0.184,-0.347 -0.265,-0.533 -0.061,-0.139 -0.114,-0.288 -0.169,-0.434 -0.064,-0.174 -0.131,-0.344 -0.186,-0.527 -0.056,-0.182 -0.1,-0.377 -0.146,-0.569 -0.04,-0.167 -0.085,-0.328 -0.118,-0.502 -0.046,-0.241 -0.076,-0.498 -0.108,-0.752 -0.017,-0.144 -0.043,-0.28 -0.056,-0.428 -0.037,-0.412 -0.058,-0.839 -0.058,-1.283 0,-7.371 5.18,-16.336 11.564,-20.026 0.399,-0.23 0.793,-0.434 1.182,-0.613 0.233,-0.107 0.46,-0.187 0.689,-0.275 0.155,-0.061 0.315,-0.135 0.468,-0.187 0.159,-0.054 0.311,-0.086 0.467,-0.131 0.22,-0.063 0.443,-0.134 0.658,-0.18 0.086,-0.019 0.169,-0.024 0.254,-0.04 0.281,-0.051 0.559,-0.099 0.829,-0.121 0.019,-0.001 0.037,0 0.057,-0.001 1.432,-0.107 2.708,0.205 3.768,0.882 0.561,0.328 1.059,0.572 1.693,0.95 2.03,1.224 3.282,3.786 3.282,7.4 0,7.371 -5.18,16.335 -11.564,20.025"
                   style="fill:#000000;fill-opacity:1;fill-rule:nonzero;stroke:none"
                   id="path334" />
              </g>
            </g>
          </g>
        </g>
        <g
           id="g342"
           transform="translate(177.0044,219.7764)">
          <path
             d="M 0,0 C -2.514,3.349 -3.51,2.201 -4.117,3.994 -5.018,6.612 0.342,9.296 2.106,6.176 3.861,3.055 4.506,-3.756 3.795,-4.534 3.083,-5.312 1.983,-2.637 0,0 m 1.841,-7.067 c -1.195,-1.897 -6.29,-1.641 -7.494,-0.541 -1.196,1.11 0.142,2.172 0.758,4.459 0.778,2.893 -0.939,4.449 0.057,4.989 1.452,0.788 7.874,-7.01 6.679,-8.907 m -11.118,2.57 c -2.495,1.945 -6.29,8.908 -6.318,10.369 -0.029,1.461 1.897,-0.55 4.259,-1.774 3.007,-1.556 2.932,0.55 4.155,-0.91 1.803,-2.135 0.408,-9.639 -2.096,-7.685 m -3.017,21.771 c 1.176,-0.199 1.034,-2.504 1.878,-5.549 1.072,-3.861 2.751,-4.107 2.514,-5.549 -0.351,-2.116 -7.627,1.043 -7.978,4.155 -0.35,3.102 2.41,7.152 3.586,6.943 m 3.443,-0.35 c 2.287,-0.029 7.779,-4.487 8.538,-6.071 C 0.446,9.259 -1.565,9.847 -3.405,9.192 -5.749,8.367 -4.639,6.1 -6.014,6.669 -8.025,7.504 -11.127,16.961 -8.851,16.924 m 2.865,0.787 c -6.384,3.681 -11.563,0.692 -11.563,-6.678 0,-7.371 5.179,-16.336 11.563,-20.026 6.384,-3.68 11.555,-0.693 11.555,6.679 0,7.37 -5.171,16.335 -11.555,20.025"
             style="fill:#e0e0e0;fill-opacity:1;fill-rule:nonzero;stroke:none"
             id="path344" />
        </g>
        <g
           id="g346"
           transform="translate(171.0176,220.0518)">
          <path
             d="M 0,0 C 1.953,-1.127 3.536,-0.213 3.536,2.042 3.536,4.297 1.953,7.039 0,8.167 -1.953,9.294 -3.537,8.38 -3.537,6.125 -3.537,3.87 -1.953,1.128 0,0"
             style="fill:#455a64;fill-opacity:1;fill-rule:nonzero;stroke:none"
             id="path348" />
        </g>
        <g
           id="g350"
           transform="translate(299.9502,219.4961)">
          <path
             d="m 0,0 c -0.471,0.63 -1.363,0.756 -1.992,0.285 l -3.634,-2.722 -0.655,2.641 -60.386,-45.387 c 0,0 -1.159,-0.626 -1.232,-0.69 l -60.13,51.606 c -0.596,0.512 -1.495,0.444 -2.006,-0.153 -0.512,-0.596 -0.443,-1.495 0.153,-2.007 l 62.331,-53.495 c 0.161,-0.135 0.325,-0.244 0.486,-0.338 0.444,-0.256 0.864,-0.358 1.253,-0.358 0.669,0 1.242,0.306 1.69,0.654 l 59.224,44.517 4.613,3.455 C 0.344,-1.521 0.472,-0.629 0,0"
             style="fill:#27debf;fill-opacity:1;fill-rule:nonzero;stroke:none"
             id="path352" />
        </g>
        <g
           id="g354"
           transform="translate(244.1255,201.9082)">
          <path
             d="m 0,0 c -5.59,0 -11.41,0.657 -17.3,1.991 -0.048,0.01 -0.094,0.023 -0.139,0.039 l -56.144,18.862 c -0.596,0.2 -0.99,0.766 -0.97,1.395 0.02,0.627 0.45,1.168 1.055,1.329 l 50.096,13.348 c 0.756,0.207 1.491,-2.547 0.731,-2.749 L -68.195,22.083 -16.602,4.75 c 17.112,-3.858 33.511,-1.807 45,5.632 9.931,6.43 16.387,16.735 19.188,30.63 0.156,0.77 0.906,1.265 1.677,1.113 0.77,-0.155 1.268,-0.906 1.113,-1.677 C 47.417,25.774 40.542,14.855 29.945,7.993 21.801,2.721 11.376,0 0,0"
             style="fill:#27debf;fill-opacity:1;fill-rule:nonzero;stroke:none"
             id="path356" />
        </g>
        <g
           id="g358"
           transform="translate(233.5933,169.0464)">
          <path
             d="m 0,0 c -0.669,0 -1.265,0.473 -1.395,1.154 l -23.224,120.91 c -0.148,0.772 0.357,1.518 1.128,1.665 0.771,0.148 1.518,-0.356 1.666,-1.128 L 1.399,1.691 C 1.547,0.92 1.042,0.174 0.271,0.026 0.18,0.008 0.089,0 0,0"
             style="fill:#27debf;fill-opacity:1;fill-rule:nonzero;stroke:none"
             id="path360" />
        </g>
        <g
           id="g362"
           transform="translate(268.3857,194.4146)">
          <path
             d="m 0,0 c -0.578,0 -1.122,0.355 -1.335,0.929 l -4.066,11 c -0.273,0.738 0.104,1.557 0.84,1.829 0.738,0.272 1.556,-0.104 1.83,-0.841 l 4.066,-11 C 1.607,1.18 1.23,0.36 0.494,0.088 0.331,0.028 0.164,0 0,0"
             style="fill:#27debf;fill-opacity:1;fill-rule:nonzero;stroke:none"
             id="path364" />
        </g>
        <g
           id="g366"
           transform="translate(321.2793,135.6924)">
          <path
             d="m 0,0 c -0.396,0 -0.788,0.163 -1.069,0.483 l -13.938,15.842 c -0.145,0.166 -0.25,0.362 -0.306,0.574 l -15.998,60.069 c -0.202,0.759 0.249,1.538 1.009,1.74 0.756,0.208 1.538,-0.248 1.741,-1.008 L -12.65,17.955 1.067,2.363 C 1.587,1.773 1.528,0.874 0.939,0.355 0.669,0.117 0.333,0 0,0"
             style="fill:#27debf;fill-opacity:1;fill-rule:nonzero;stroke:none"
             id="path368" />
        </g>
        <g
           id="g370"
           transform="translate(292.8428,215.521)">
          <path
             d="m 0,0 -3.32,45.087 c -0.078,1.045 3.706,1.324 3.783,0.279 L 3.783,0.278 C 3.861,-0.767 0.073,-0.998 0,0"
             style="fill:#27debf;fill-opacity:1;fill-rule:nonzero;stroke:none"
             id="path372" />
        </g>
        <g
           id="g374">
          <g
             id="g376" />
          <g
             id="g408">
            <g
               clip-path="url(#clipPath380)"
               opacity="0.399994"
               id="g406">
              <g
                 transform="translate(299.9502,219.4961)"
                 id="g384">
                <path
                   d="m 0,0 c -0.471,0.63 -1.363,0.756 -1.992,0.285 l -3.634,-2.722 -0.655,2.641 -60.386,-45.387 c 0,0 -1.159,-0.626 -1.232,-0.69 l -60.13,51.606 c -0.596,0.512 -1.495,0.444 -2.006,-0.153 -0.512,-0.596 -0.443,-1.495 0.153,-2.007 l 62.331,-53.495 c 0.161,-0.135 0.325,-0.244 0.486,-0.338 0.444,-0.256 0.864,-0.358 1.253,-0.358 0.669,0 1.242,0.306 1.69,0.654 l 59.224,44.517 4.613,3.455 C 0.344,-1.521 0.472,-0.629 0,0"
                   style="fill:#000000;fill-opacity:1;fill-rule:nonzero;stroke:none"
                   id="path382" />
              </g>
              <g
                 transform="translate(244.1255,201.9082)"
                 id="g388">
                <path
                   d="m 0,0 c -5.59,0 -11.41,0.657 -17.3,1.991 -0.048,0.01 -0.094,0.023 -0.139,0.039 l -56.144,18.862 c -0.596,0.2 -0.99,0.766 -0.97,1.395 0.02,0.627 0.45,1.168 1.055,1.329 l 50.096,13.348 c 0.756,0.207 1.491,-2.547 0.731,-2.749 L -68.195,22.083 -16.602,4.75 c 17.112,-3.858 33.511,-1.807 45,5.632 9.931,6.43 16.387,16.735 19.188,30.63 0.156,0.77 0.906,1.265 1.677,1.113 0.77,-0.155 1.268,-0.906 1.113,-1.677 C 47.417,25.774 40.542,14.855 29.945,7.993 21.801,2.721 11.376,0 0,0"
                   style="fill:#000000;fill-opacity:1;fill-rule:nonzero;stroke:none"
                   id="path386" />
              </g>
              <g
                 transform="translate(233.5933,169.0464)"
                 id="g392">
                <path
                   d="m 0,0 c -0.669,0 -1.265,0.473 -1.395,1.154 l -23.224,120.91 c -0.148,0.772 0.357,1.518 1.128,1.665 0.771,0.148 1.518,-0.356 1.666,-1.128 L 1.399,1.691 C 1.547,0.92 1.042,0.174 0.271,0.026 0.18,0.008 0.089,0 0,0"
                   style="fill:#000000;fill-opacity:1;fill-rule:nonzero;stroke:none"
                   id="path390" />
              </g>
              <g
                 transform="translate(268.3857,194.4146)"
                 id="g396">
                <path
                   d="m 0,0 c -0.578,0 -1.122,0.355 -1.335,0.929 l -4.066,11 c -0.273,0.738 0.104,1.557 0.84,1.829 0.738,0.272 1.556,-0.104 1.83,-0.841 l 4.066,-11 C 1.607,1.18 1.23,0.36 0.494,0.088 0.331,0.028 0.164,0 0,0"
                   style="fill:#000000;fill-opacity:1;fill-rule:nonzero;stroke:none"
                   id="path394" />
              </g>
              <g
                 transform="translate(321.2793,135.6924)"
                 id="g400">
                <path
                   d="m 0,0 c -0.396,0 -0.788,0.163 -1.069,0.483 l -13.938,15.842 c -0.145,0.166 -0.25,0.362 -0.306,0.574 l -15.998,60.069 c -0.202,0.759 0.249,1.538 1.009,1.74 0.756,0.208 1.538,-0.248 1.741,-1.008 L -12.65,17.955 1.067,2.363 C 1.587,1.773 1.528,0.874 0.939,0.355 0.669,0.117 0.333,0 0,0"
                   style="fill:#000000;fill-opacity:1;fill-rule:nonzero;stroke:none"
                   id="path398" />
              </g>
              <g
                 transform="translate(292.8428,215.521)"
                 id="g404">
                <path
                   d="m 0,0 -3.32,45.087 c -0.078,1.045 3.706,1.324 3.783,0.279 L 3.783,0.278 C 3.861,-0.767 0.073,-0.998 0,0"
                   style="fill:#000000;fill-opacity:1;fill-rule:nonzero;stroke:none"
                   id="path402" />
              </g>
            </g>
          </g>
        </g>
        <g
           id="g410"
           transform="translate(292.1465,224.9741)">
          <path
             d="m 0,0 c 0,0 0.156,-3.269 0.081,-5.114 -0.069,-1.698 -3.362,-4.272 -2.307,-7.626 1.055,-3.354 2.439,-8.55 2.439,-8.55 0,0 1.822,-0.765 2.652,1.099 l -1.375,5.162 c -0.408,1.53 0.156,3.155 1.422,4.106 l 0.565,0.423 c 1.127,0.846 2.752,0.284 3.116,-1.077 l 1.495,-5.588 c 0,0 2.142,-0.428 2.526,1.573 0,0 -1.861,7.393 -2.689,10.102 -0.654,2.141 -3.833,1.261 -4.016,4.054 L 3.677,1.721 C 3.783,0.286 0.773,-1.201 0,0"
             style="fill:#37474f;fill-opacity:1;fill-rule:nonzero;stroke:none"
             id="path412" />
        </g>
        <g
           id="g414">
          <g
             id="g416" />
          <g
             id="g428">
            <g
               clip-path="url(#clipPath420)"
               opacity="0.149994"
               id="g426">
              <g
                 transform="translate(293.3057,260.8872)"
                 id="g424">
                <path
                   d="m 0,0 c -0.077,1.045 -3.861,0.766 -3.783,-0.279 l 0.979,-13.301 c 0.903,-0.641 2.338,-1.47 3.928,-1.679 z"
                   style="fill:#000000;fill-opacity:1;fill-rule:nonzero;stroke:none"
                   id="path422" />
              </g>
            </g>
          </g>
        </g>
        <g
           id="g430"
           transform="translate(241.6284,167.3057)">
          <path
             d="m 0,0 c -2.514,3.358 -3.51,2.201 -4.117,3.994 -0.295,0.869 0.1,1.739 0.815,2.409 1.346,0.402 2.854,0.173 3.643,-1.224 C 1.567,3 2.249,-0.973 2.308,-3.44 1.707,-2.544 0.957,-1.269 0,0 m -5.645,-7.599 c -1.204,1.101 0.133,2.173 0.75,4.45 0.382,1.41 0.171,2.5 -0.032,3.312 2.365,-1.865 5.919,-6.772 5.003,-8.226 -0.033,-0.052 -0.079,-0.096 -0.117,-0.145 -1.985,-0.522 -4.762,-0.172 -5.604,0.609 m -6.536,18.328 c 0.971,-3.495 2.433,-4.031 2.527,-5.169 -2.274,0.367 -5.969,2.578 -6.217,4.771 -0.237,2.044 0.875,4.484 1.998,5.864 0.963,-0.422 0.899,-2.606 1.692,-5.466 M -3.406,9.202 C -3.591,9.135 -3.755,9.061 -3.9,8.979 -4.222,8.796 -5.526,8.053 -5.673,7.97 -6.115,7.72 -6.382,7.405 -6.559,7.087 c -1.487,1.516 -3.215,6.362 -3.079,8.641 2.592,-0.886 6.895,-4.483 7.56,-5.872 0.06,-0.125 0.097,-0.232 0.123,-0.332 C -2.415,9.461 -2.916,9.376 -3.406,9.202 M -9.269,-4.497 c -1.981,1.547 -4.759,6.224 -5.853,8.834 0.602,-0.403 1.29,-0.857 2.021,-1.235 3.007,-1.556 2.932,0.55 4.155,-0.911 1.173,-1.389 0.991,-5.049 0.032,-6.899 -0.116,0.051 -0.233,0.117 -0.355,0.211 m 3.302,22.217 c -3.283,1.898 -6.233,2.011 -8.339,0.693 -0.434,-0.276 -0.964,-0.514 -1.523,-0.847 -0.155,-0.086 -0.301,-0.188 -0.448,-0.289 -0.026,-0.018 -0.052,-0.031 -0.077,-0.05 -0.01,-0.007 -0.019,-0.016 -0.029,-0.023 -0.197,-0.142 -0.386,-0.299 -0.566,-0.468 -0.041,-0.038 -0.08,-0.077 -0.12,-0.116 -0.16,-0.159 -0.312,-0.327 -0.456,-0.507 -0.054,-0.067 -0.104,-0.137 -0.156,-0.206 -0.124,-0.169 -0.244,-0.343 -0.355,-0.529 -0.061,-0.1 -0.116,-0.207 -0.172,-0.313 -0.093,-0.173 -0.184,-0.347 -0.266,-0.533 -0.061,-0.139 -0.113,-0.288 -0.168,-0.434 -0.065,-0.174 -0.131,-0.344 -0.187,-0.527 -0.055,-0.182 -0.099,-0.377 -0.145,-0.569 -0.04,-0.167 -0.086,-0.328 -0.118,-0.502 -0.046,-0.242 -0.076,-0.498 -0.108,-0.753 -0.018,-0.143 -0.044,-0.279 -0.057,-0.427 -0.036,-0.412 -0.057,-0.839 -0.057,-1.284 0,-7.37 5.179,-16.335 11.564,-20.025 0.398,-0.23 0.793,-0.434 1.182,-0.613 0.233,-0.107 0.46,-0.187 0.688,-0.275 0.156,-0.061 0.316,-0.135 0.469,-0.187 0.159,-0.054 0.311,-0.086 0.467,-0.131 0.22,-0.063 0.443,-0.135 0.657,-0.18 0.087,-0.019 0.169,-0.024 0.255,-0.04 0.281,-0.051 0.559,-0.099 0.829,-0.121 0.019,-0.002 0.037,0 0.057,-0.001 1.432,-0.107 2.707,0.204 3.767,0.882 0.561,0.328 1.059,0.572 1.693,0.95 2.03,1.224 3.283,3.786 3.283,7.4 0,7.37 -5.18,16.335 -11.564,20.025"
             style="fill:#e0e0e0;fill-opacity:1;fill-rule:nonzero;stroke:none"
             id="path432" />
        </g>
        <g
           id="g434">
          <g
             id="g436" />
          <g
             id="g448">
            <g
               clip-path="url(#clipPath440)"
               opacity="0.199997"
               id="g446">
              <g
                 transform="translate(241.6284,167.3057)"
                 id="g444">
                <path
                   d="m 0,0 c -2.514,3.358 -3.51,2.201 -4.117,3.994 -0.295,0.869 0.1,1.739 0.815,2.409 1.346,0.402 2.854,0.173 3.643,-1.224 C 1.567,3 2.249,-0.973 2.308,-3.44 1.707,-2.544 0.957,-1.269 0,0 m -5.645,-7.599 c -1.204,1.101 0.133,2.173 0.75,4.45 0.382,1.41 0.171,2.5 -0.032,3.312 2.365,-1.865 5.919,-6.772 5.003,-8.226 -0.033,-0.052 -0.079,-0.096 -0.117,-0.145 -1.985,-0.522 -4.762,-0.172 -5.604,0.609 m -6.536,18.328 c 0.971,-3.495 2.433,-4.031 2.527,-5.169 -2.274,0.367 -5.969,2.578 -6.217,4.771 -0.237,2.044 0.875,4.484 1.998,5.864 0.963,-0.422 0.899,-2.606 1.692,-5.466 M -3.406,9.202 C -3.591,9.135 -3.755,9.061 -3.9,8.979 -4.222,8.796 -5.526,8.053 -5.673,7.97 -6.115,7.72 -6.382,7.405 -6.559,7.087 c -1.487,1.516 -3.215,6.362 -3.079,8.641 2.592,-0.886 6.895,-4.483 7.56,-5.872 0.06,-0.125 0.097,-0.232 0.123,-0.332 C -2.415,9.461 -2.916,9.376 -3.406,9.202 M -9.269,-4.497 c -1.981,1.547 -4.759,6.224 -5.853,8.834 0.602,-0.403 1.29,-0.857 2.021,-1.235 3.007,-1.556 2.932,0.55 4.155,-0.911 1.173,-1.389 0.991,-5.049 0.032,-6.899 -0.116,0.051 -0.233,0.117 -0.355,0.211 m 3.302,22.217 c -3.283,1.898 -6.233,2.011 -8.339,0.693 -0.434,-0.276 -0.964,-0.514 -1.523,-0.847 -0.155,-0.086 -0.301,-0.188 -0.448,-0.289 -0.026,-0.018 -0.052,-0.031 -0.077,-0.05 -0.01,-0.007 -0.019,-0.016 -0.029,-0.023 -0.197,-0.142 -0.386,-0.299 -0.566,-0.468 -0.041,-0.038 -0.08,-0.077 -0.12,-0.116 -0.16,-0.159 -0.312,-0.327 -0.456,-0.507 -0.054,-0.067 -0.104,-0.137 -0.156,-0.206 -0.124,-0.169 -0.244,-0.343 -0.355,-0.529 -0.061,-0.1 -0.116,-0.207 -0.172,-0.313 -0.093,-0.173 -0.184,-0.347 -0.266,-0.533 -0.061,-0.139 -0.113,-0.288 -0.168,-0.434 -0.065,-0.174 -0.131,-0.344 -0.187,-0.527 -0.055,-0.182 -0.099,-0.377 -0.145,-0.569 -0.04,-0.167 -0.086,-0.328 -0.118,-0.502 -0.046,-0.242 -0.076,-0.498 -0.108,-0.753 -0.018,-0.143 -0.044,-0.279 -0.057,-0.427 -0.036,-0.412 -0.057,-0.839 -0.057,-1.284 0,-7.37 5.179,-16.335 11.564,-20.025 0.398,-0.23 0.793,-0.434 1.182,-0.613 0.233,-0.107 0.46,-0.187 0.688,-0.275 0.156,-0.061 0.316,-0.135 0.469,-0.187 0.159,-0.054 0.311,-0.086 0.467,-0.131 0.22,-0.063 0.443,-0.135 0.657,-0.18 0.087,-0.019 0.169,-0.024 0.255,-0.04 0.281,-0.051 0.559,-0.099 0.829,-0.121 0.019,-0.002 0.037,0 0.057,-0.001 1.432,-0.107 2.707,0.204 3.767,0.882 0.561,0.328 1.059,0.572 1.693,0.95 2.03,1.224 3.283,3.786 3.283,7.4 0,7.37 -5.18,16.335 -11.564,20.025"
                   style="fill:#000000;fill-opacity:1;fill-rule:nonzero;stroke:none"
                   id="path442" />
              </g>
            </g>
          </g>
        </g>
        <g
           id="g450"
           transform="translate(239.8638,166.3096)">
          <path
             d="M 0,0 C -2.514,3.349 -3.51,2.201 -4.117,3.994 -5.018,6.612 0.341,9.296 2.106,6.175 3.861,3.055 4.506,-3.757 3.794,-4.535 3.083,-5.312 1.982,-2.637 0,0 m 1.84,-7.067 c -1.195,-1.898 -6.289,-1.641 -7.494,-0.541 -1.195,1.11 0.142,2.172 0.759,4.459 0.778,2.893 -0.939,4.448 0.057,4.989 1.451,0.787 7.874,-7.01 6.678,-8.907 m -11.118,2.57 c -2.494,1.945 -6.289,8.908 -6.318,10.369 -0.028,1.461 1.898,-0.55 4.26,-1.774 3.007,-1.556 2.931,0.55 4.155,-0.91 1.802,-2.135 0.408,-9.639 -2.097,-7.685 m -3.016,21.771 c 1.176,-0.199 1.034,-2.504 1.878,-5.549 1.072,-3.861 2.751,-4.108 2.514,-5.55 -0.351,-2.115 -7.627,1.044 -7.978,4.156 -0.351,3.102 2.409,7.152 3.586,6.943 m 3.443,-0.351 c 2.287,-0.028 7.779,-4.486 8.538,-6.071 C 0.446,9.258 -1.565,9.847 -3.406,9.192 -5.749,8.367 -4.639,6.1 -6.015,6.669 c -2.01,0.834 -5.112,10.292 -2.836,10.254 m 2.865,0.788 c -6.384,3.681 -11.564,0.692 -11.564,-6.679 0,-7.37 5.18,-16.335 11.564,-20.025 6.384,-3.681 11.554,-0.693 11.554,6.678 0,7.371 -5.17,16.336 -11.554,20.026"
             style="fill:#e0e0e0;fill-opacity:1;fill-rule:nonzero;stroke:none"
             id="path452" />
        </g>
        <g
           id="g454"
           transform="translate(233.8765,166.585)">
          <path
             d="M 0,0 C 1.953,-1.127 3.536,-0.213 3.536,2.042 3.536,4.297 1.953,7.039 0,8.167 -1.953,9.294 -3.536,8.38 -3.536,6.125 -3.536,3.87 -1.953,1.127 0,0"
             style="fill:#455a64;fill-opacity:1;fill-rule:nonzero;stroke:none"
             id="path456" />
        </g>
        <g
           id="g458"
           transform="translate(222.1958,152.0093)">
          <path
             d="m 0,0 c -0.141,0 -0.284,0.031 -0.418,0.098 -0.47,0.232 -0.664,0.8 -0.432,1.27 L 6.967,17.2 11.07,19.568 c 0.452,0.263 1.034,0.106 1.297,-0.347 0.261,-0.454 0.106,-1.034 -0.348,-1.296 L 8.415,15.844 0.852,0.529 C 0.687,0.193 0.35,0 0,0"
             style="fill:#263238;fill-opacity:1;fill-rule:nonzero;stroke:none"
             id="path460" />
        </g>
        <g
           id="g462"
           transform="translate(229.1245,149.1357)">
          <path
             d="m 0,0 -9.804,5.66 c -0.544,0.314 -1.213,0.314 -1.757,0 l -13.656,-7.885 c -0.543,-0.313 -0.878,-0.893 -0.878,-1.521 v -0.877 c 0,-0.627 0.335,-1.208 0.878,-1.521 l 9.823,-5.672 c 0.544,-0.314 1.215,-0.313 1.759,0.001 L 0.002,-3.92 c 0.542,0.314 0.876,0.894 0.876,1.52 v 0.879 C 0.878,-0.894 0.543,-0.313 0,0"
             style="fill:#27debf;fill-opacity:1;fill-rule:nonzero;stroke:none"
             id="path464" />
        </g>
        <g
           id="g466">
          <g
             id="g468" />
          <g
             id="g480">
            <g
               clip-path="url(#clipPath472)"
               opacity="0.199997"
               id="g478">
              <g
                 transform="translate(229.1245,149.1357)"
                 id="g476">
                <path
                   d="m 0,0 -9.804,5.66 c -0.544,0.314 -1.213,0.314 -1.757,0 l -13.656,-7.885 c -0.543,-0.313 -0.878,-0.893 -0.878,-1.521 v -0.877 c 0,-0.627 0.335,-1.208 0.878,-1.521 l 9.823,-5.672 c 0.544,-0.314 1.215,-0.313 1.759,0.001 L 0.002,-3.92 c 0.542,0.314 0.876,0.894 0.876,1.52 v 0.879 C 0.878,-0.894 0.543,-0.313 0,0"
                   style="fill:#000000;fill-opacity:1;fill-rule:nonzero;stroke:none"
                   id="path474" />
              </g>
            </g>
          </g>
        </g>
        <g
           id="g482"
           transform="translate(213.7935,140.1895)">
          <path
             d="M 0,0 C 0.505,-0.292 1.128,-0.292 1.633,0.001 L 15.974,8.303 C 15.823,8.566 15.603,8.79 15.331,8.946 l -2.739,1.582 -7.065,4.078 c -0.544,0.314 -1.213,0.314 -1.756,0 L 2.116,13.651 -9.886,6.722 c -0.272,-0.157 -0.491,-0.38 -0.643,-0.643 z"
             style="fill:#27debf;fill-opacity:1;fill-rule:nonzero;stroke:none"
             id="path484" />
        </g>
        <g
           id="g486"
           transform="translate(251.916,269.3975)">
          <path
             d="m 0,0 c -2.866,4.667 -9.601,11.464 -9.601,11.464 0,0 -17.373,23.379 -36.64,12.255 -3.875,-2.237 -5.844,-5.128 -6.687,-9.488 -0.316,-1.635 -0.208,-3.573 -0.14,-4.182 0.296,-2.677 0.855,-3.751 2.382,-5.86 2.539,-3.503 9.712,-6.384 18.306,-8.557 0.616,-0.156 1.234,-0.303 1.853,-0.446 3.068,-0.705 6.16,-1.299 9.245,-1.925 3.057,-0.619 6.118,-1.245 9.133,-2.051 1.235,-0.329 2.465,-0.689 3.665,-1.133 0.493,-0.183 0.981,-0.38 1.457,-0.605 0.645,-0.305 1.095,-0.762 1.856,-0.802 0.445,-0.023 0.89,0.049 1.328,0.13 0.403,0.074 0.807,0.156 1.186,0.31 0.34,0.139 0.654,0.334 0.947,0.555 1.106,0.835 1.905,2.04 2.356,3.35 C 1.44,-4.674 1.288,-2.098 0,0"
             style="fill:#9a4a4d;fill-opacity:1;fill-rule:nonzero;stroke:none"
             id="path488" />
        </g>
        <g
           id="g490"
           transform="translate(205.6748,293.1167)">
          <path
             d="m 0,0 c -5.838,-3.371 -9.036,-9.578 -4.445,-15.915 2.539,-3.504 9.712,-6.384 18.306,-8.558 8.594,-2.173 23.287,-4.131 26.918,-7.098 3.632,-2.968 8.828,2.368 5.462,7.852 -2.866,4.667 -9.601,11.464 -9.601,11.464 0,0 -17.373,23.379 -36.64,12.255"
             style="fill:#b16668;fill-opacity:1;fill-rule:nonzero;stroke:none"
             id="path492" />
        </g>
        <g
           id="g494"
           transform="translate(211.9736,161.9185)">
          <path
             d="M 0,0 10.942,-1.31 15.435,18.284 2.088,17.444 Z"
             style="fill:#ffa8a7;fill-opacity:1;fill-rule:nonzero;stroke:none"
             id="path496" />
        </g>
        <g
           id="g498"
           transform="translate(236.7676,138.0342)">
          <path
             d="m 0,0 c 0.13,-0.512 0.009,-1.786 -0.469,-2.37 -0.513,-0.627 -1.625,-1.826 -5.659,-1.989 -4.326,-0.175 -7.109,0.845 -8.844,1.742 -2.668,1.38 -4.991,2.961 -5.82,5.952 -0.659,2.382 -1.127,5.336 -3.221,7.189 -1.96,1.735 -3.4,2.189 -4.028,3.985 -0.662,2.118 0.67,6.792 0.67,6.792 z"
             style="fill:#37474f;fill-opacity:1;fill-rule:nonzero;stroke:none"
             id="path500" />
        </g>
        <g
           id="g502"
           transform="translate(224.5918,161.375)">
          <path
             d="m 0,0 c -0.083,-0.953 -0.02,-1.837 0.169,-2.778 0.534,-2.662 2.339,-5.77 3.944,-7.91 0.587,-0.784 1.179,-1.572 1.893,-2.242 1.438,-1.348 3.324,-2.174 4.661,-3.622 1.311,-1.418 1.994,-3.395 1.838,-5.319 -0.088,-1.094 -0.481,-2.23 -1.356,-2.893 -0.489,-0.372 -1.088,-0.566 -1.683,-0.719 -4.063,-1.046 -8.505,-0.322 -12.11,1.792 -1.766,1.035 -3.418,2.343 -4.344,4.195 -0.991,1.985 -1.967,5.477 -3.204,7.351 -1.002,1.517 -2.592,2.532 -3.835,3.857 -2.738,2.918 -1.421,7.086 -0.093,10.381 0.699,1.733 1.49,3.694 2.1,3.449 -0.104,-0.929 -0.126,-1.023 0.465,-1.733 0.747,-0.897 0.64,-2.099 1.446,-2.909 -0.287,1.141 -0.258,1.607 -0.338,2.467 -0.025,0.257 0.104,0.757 0.303,0.928 0.268,0.23 0.688,0.342 1.099,0.428 1.376,0.289 2.785,0.436 4.195,0.441 1.287,0.004 2.764,-0.016 3.989,-0.448 C -0.485,4.583 -0.13,4.353 0.071,4.016 0.283,3.662 0.295,3.369 0.291,2.824 0.287,2.279 0.079,0.896 0,0"
             style="fill:#455a64;fill-opacity:1;fill-rule:nonzero;stroke:none"
             id="path504" />
        </g>
        <g
           id="g506"
           transform="translate(227.7905,151.9966)">
          <path
             d="m 0,0 c -1.25,0.959 -4.076,1.004 -5.624,0.856 -1.937,-0.185 -3.511,-0.846 -4.409,-1.491 -0.397,-0.286 -0.948,-0.23 -1.292,0.116 -0.413,0.417 -0.366,1.095 0.112,1.439 0.951,0.683 2.669,1.64 4.963,1.775 3.806,0.224 4.914,-0.44 4.914,-0.44 0,0 1.722,-1.136 1.336,-2.255"
             style="fill:#f5f5f5;fill-opacity:1;fill-rule:nonzero;stroke:none"
             id="path508" />
        </g>
        <g
           id="g510"
           transform="translate(231.1108,148.0547)">
          <path
             d="m 0,0 c -1.609,0.897 -4.712,0.685 -6.253,0.48 -1.93,-0.255 -3.357,-1.053 -4.23,-1.73 -0.387,-0.301 -0.94,-0.265 -1.295,0.069 -0.429,0.402 -0.407,1.08 0.059,1.441 0.925,0.718 2.71,1.885 4.998,2.103 3.795,0.363 4.805,-0.389 4.805,-0.389 0,0 1.619,-0.58 1.916,-1.974"
             style="fill:#f5f5f5;fill-opacity:1;fill-rule:nonzero;stroke:none"
             id="path512" />
        </g>
        <g
           id="g514"
           transform="translate(220.3628,158.9575)">
          <path
             d="m 0,0 c 2.641,-0.043 3.712,-0.467 4.699,-0.966 0.62,-0.452 0.932,-1.556 0.472,-1.771 -0.784,0.567 -2.274,0.942 -4.138,1.081 -1.251,0.094 -2.878,-0.222 -4.217,-0.633 -0.34,-0.104 -0.747,-0.26 -1.104,-0.405 -0.481,-0.196 -1.034,0.05 -1.196,0.535 -0.137,0.411 0.055,0.858 0.456,1.04 C -4.048,-0.676 -2.134,0.035 0,0"
             style="fill:#f5f5f5;fill-opacity:1;fill-rule:nonzero;stroke:none"
             id="path516" />
        </g>
        <g
           id="g518"
           transform="translate(262.9971,302.6914)">
          <path
             d="m 0,0 -51.805,-0.408 c -3.124,-10.549 -3.176,-21.047 0,-31.146 4.747,-15.093 14.533,-42.087 14.533,-42.087 0,0 -5.719,-7.651 -8.489,-18.249 -2.771,-10.599 -4.532,-38.613 -4.532,-38.613 0,0 7.346,-4.72 12.563,-2.428 0,0 16.258,40.712 20.829,54.39 4.57,13.678 -0.412,54.258 -0.412,54.258 0,0 14.334,13.752 17.313,24.283"
             style="fill:#37474f;fill-opacity:1;fill-rule:nonzero;stroke:none"
             id="path520" />
        </g>
        <g
           id="g522"
           transform="translate(233.3604,250.2129)">
          <path
             d="m 0,0 c 1.222,-2.643 4.95,-8.924 6.995,-10.728 3.52,-3.103 6.476,-1.987 6.476,-1.987 L 12.5,-5.68 6.429,0.96 Z"
             style="fill:#f28f8f;fill-opacity:1;fill-rule:nonzero;stroke:none"
             id="path524" />
        </g>
        <g
           id="g526"
           transform="translate(263.4746,371.1748)">
          <path
             d="M 0,0 C 6.817,-0.706 11.074,-6.506 15.981,-17.025 20.89,-27.544 33.152,-51.63 33.152,-51.63 l 32.356,-21.979 1.44,-11.346 -2.02,-2.003 c 0,0 -4.276,2.139 -5.977,2.98 0,0 -30.276,16.118 -32.388,17.24 -2.806,1.49 -5.932,4.253 -7.295,6.478 -3.775,6.159 -18.558,34.709 -18.558,34.709 z"
             style="fill:#ffa8a7;fill-opacity:1;fill-rule:nonzero;stroke:none"
             id="path528" />
        </g>
        <g
           id="g530"
           transform="translate(263.4746,371.1748)">
          <path
             d="m 0,0 c 0,0 2.269,0.712 6.137,-1.977 3.867,-2.688 6.277,-6.903 10.82,-16.014 4.543,-9.11 9.086,-18.381 9.086,-18.381 0,0 -4.032,-8.231 -15.413,-10.003 l -10.831,18.439 z"
             style="fill:#27debf;fill-opacity:1;fill-rule:nonzero;stroke:none"
             id="path532" />
        </g>
        <g
           id="g534">
          <g
             id="g536" />
          <g
             id="g548">
            <g
               clip-path="url(#clipPath540)"
               opacity="0.300003"
               id="g546">
              <g
                 transform="translate(263.4746,371.1748)"
                 id="g544">
                <path
                   d="m 0,0 c 0,0 2.269,0.712 6.137,-1.977 3.867,-2.688 6.277,-6.903 10.82,-16.014 4.543,-9.11 9.086,-18.381 9.086,-18.381 0,0 -4.032,-8.231 -15.413,-10.003 l -10.831,18.439 z"
                   style="fill:#000000;fill-opacity:1;fill-rule:nonzero;stroke:none"
                   id="path542" />
              </g>
            </g>
          </g>
        </g>
        <g
           id="g550"
           transform="translate(332.0459,282.3521)">
          <path
             d="m 0,0 -3.021,5.218 12.772,7.374 0.002,-0.004 c 0.388,0.237 0.927,0.213 1.526,-0.133 1.178,-0.68 2.132,-2.333 2.132,-3.692 0,-0.662 -0.228,-1.128 -0.597,-1.358 L 12.817,7.401 12.79,7.385 C 12.788,7.384 12.785,7.382 12.783,7.381 Z"
             style="fill:#455a64;fill-opacity:1;fill-rule:nonzero;stroke:none"
             id="path552" />
        </g>
        <g
           id="g554"
           transform="translate(332.666,283.7295)">
          <path
             d="m 0,0 c 0,-1.359 -0.954,-1.91 -2.132,-1.23 -1.178,0.679 -2.132,2.333 -2.132,3.692 0,1.359 0.954,1.911 2.132,1.231 C -0.954,3.013 0,1.36 0,0"
             style="fill:#37474f;fill-opacity:1;fill-rule:nonzero;stroke:none"
             id="path556" />
        </g>
        <g
           id="g558"
           transform="translate(324.6328,300.5205)">
          <path
             d="m 0,0 c 3.22,-1.29 13.753,-1.542 16.84,-3.911 3.087,-2.369 4.128,-8.501 2.616,-11.092 -1.513,-2.592 -7.307,-5.375 -9.636,-4.767 -2.33,0.608 -2.397,1.625 -2.397,1.625 l 1.829,1.04 c 0,0 1.271,5.751 -2.406,5.571 L 4.409,-12.94 1.633,-9.18 Z"
             style="fill:#ffa8a7;fill-opacity:1;fill-rule:nonzero;stroke:none"
             id="path560" />
        </g>
        <g
           id="g562"
           transform="translate(331.4473,284.4458)">
          <path
             d="m 0,0 c 0,-0.228 -0.057,-0.417 -0.161,-0.541 l -0.322,-0.18 -16.687,-9.638 c -1.934,-1.12 -3.14,-3.206 -3.14,-5.445 0,-3.245 -1.745,-6.28 -4.562,-7.903 l -11.565,-6.678 -1.422,2.467 11.563,6.678 c 1.936,1.119 3.141,3.197 3.141,5.436 0,3.254 1.755,6.28 4.562,7.911 L -1.83,1.774 -1.66,1.878 C -1.489,1.944 -1.261,1.907 -1.024,1.774 -0.465,1.442 0,0.654 0,0"
             style="fill:#e0e0e0;fill-opacity:1;fill-rule:nonzero;stroke:none"
             id="path564" />
        </g>
        <g
           id="g566"
           transform="translate(223.5278,355.3564)">
          <path
             d="m 0,0 c -5.347,-15.813 -12.335,-53.073 -12.335,-53.073 6.467,-8.609 37.478,-15.232 51.804,0.408 2.852,9.763 6.95,23.796 9.73,43.818 1.534,11.052 1.302,19.992 -8.108,24.511 L 25.074,17.818 11.783,16.457 C 5.114,13.442 2.015,5.96 0,0"
             style="fill:#f0f0f0;fill-opacity:1;fill-rule:nonzero;stroke:none"
             id="path568" />
        </g>
        <g
           id="g570">
          <g
             id="g572" />
          <g
             id="g584">
            <g
               clip-path="url(#clipPath576)"
               opacity="0.100006"
               id="g582">
              <g
                 transform="translate(211.9126,301.4409)"
                 id="g580">
                <path
                   d="M 0,0 C 6.922,-7.283 31.031,-12.584 46.014,-2.979 39.064,-6.331 32.301,-5.13 27.925,-2.745 23.276,-0.21 20.146,12.73 20.146,12.73 L 26.195,48.625 7.682,39.958 C 3.367,22.633 -0.72,0.842 -0.72,0.842 -0.521,0.577 -0.297,0.313 -0.053,0.053 -0.036,0.035 -0.017,0.018 0,0"
                   style="fill:#000000;fill-opacity:1;fill-rule:nonzero;stroke:none"
                   id="path578" />
              </g>
            </g>
          </g>
        </g>
        <g
           id="g586"
           transform="translate(252.1211,408.3496)">
          <path
             d="m 0,0 c -0.325,-8.539 6.333,-15.725 14.872,-16.05 8.539,-0.325 15.725,6.333 16.05,14.872 C 31.248,7.361 24.589,14.547 16.05,14.873 7.511,15.198 0.325,8.539 0,0"
             style="fill:#263238;fill-opacity:1;fill-rule:nonzero;stroke:none"
             id="path588" />
        </g>
        <g
           id="g590"
           transform="translate(240.437,397.7861)">
          <path
             d="m 0,0 c 0,0 2.057,-11.866 2.988,-13.839 0.931,-1.972 2.986,-2.601 2.986,-2.601 l 0.14,8.287 z"
             style="fill:#263238;fill-opacity:1;fill-rule:nonzero;stroke:none"
             id="path592" />
        </g>
        <g
           id="g594"
           transform="translate(244.2241,414.5288)">
          <path
             d="m 0,0 c 0,0 -2.681,0.565 -4.867,-1.505 -2.142,-2.031 -1.242,-8.675 1.08,-15.238 l 4.699,-0.721 z"
             style="fill:#263238;fill-opacity:1;fill-rule:nonzero;stroke:none"
             id="path596" />
        </g>
        <g
           id="g598"
           transform="translate(246.5508,397.0063)">
          <path
             d="m 0,0 c -0.968,-0.529 -2.249,1.34 -3.369,2.606 -1.12,1.265 -4.867,3.079 -6.92,-0.853 -2.092,-4.007 1.317,-9.537 4.281,-10.593 C -0.902,-10.659 0,-7.373 0,-7.373 l -0.315,-18.66 c 4.265,-5.146 20.443,-9.597 16.836,-0.148 l 0.201,5.675 c 0,0 4.641,-0.67 6.955,-0.623 2.632,0.054 5.561,1.895 7.308,7.706 2.185,7.262 2.394,16.608 1.298,26.006 C 30.792,25.372 15.507,26.29 6.344,20.999 -2.818,15.708 0,0 0,0"
             style="fill:#ffa8a7;fill-opacity:1;fill-rule:nonzero;stroke:none"
             id="path600" />
        </g>
        <g
           id="g602"
           transform="translate(246.4902,395.4141)">
          <path
             d="m 0,0 c -0.422,0.221 -2.171,3.082 -3.309,4.198 -1.575,1.548 1.043,14.917 1.043,14.917 0,0 -1.442,3.403 1.834,6.742 2.329,2.376 6.645,5.246 12.96,3.872 4.647,-1.012 9.402,-2.281 14.124,-1.198 2.344,0.538 4.648,1.315 7.043,1.529 0.282,0.024 0.595,0.032 0.811,-0.15 0.233,-0.198 0.264,-0.542 0.257,-0.848 -0.034,-1.546 -0.58,-3.076 -1.533,-4.294 0.984,0.253 1.967,0.505 2.95,0.758 0.205,0.052 0.436,0.101 0.614,-0.013 0.189,-0.122 0.234,-0.375 0.251,-0.6 0.153,-2.09 -0.703,-4.232 -2.256,-5.641 C 31.554,16.338 28.066,15.449 23.738,15.238 13.643,14.747 8.133,16.678 6.851,16.903 5.104,17.21 4.664,15.523 3.54,10.91 2.554,6.861 3.692,-1.934 0,0"
             style="fill:#263238;fill-opacity:1;fill-rule:nonzero;stroke:none"
             id="path604" />
        </g>
        <g
           id="g606"
           transform="translate(244.1934,413.4824)">
          <path
             d="M 0,0 -5.605,3.29 C -4.73,4.898 -2.767,5.466 -1.219,4.557 0.329,3.649 0.875,1.609 0,0"
             style="fill:#263238;fill-opacity:1;fill-rule:nonzero;stroke:none"
             id="path608" />
        </g>
        <g
           id="g610"
           transform="translate(263.2734,376.5005)">
          <path
             d="m 0,0 c 0,0 -8.421,2.033 -11.327,3.723 -1.945,1.131 -3.511,3.023 -3.946,4.214 0,0 0.46,-2.54 2.147,-4.875 2.064,-2.856 13.039,-5.32 13.039,-5.32 z"
             style="fill:#f28f8f;fill-opacity:1;fill-rule:nonzero;stroke:none"
             id="path612" />
        </g>
        <g
           id="g614"
           transform="translate(263.0693,398.4502)">
          <path
             d="m 0,0 c -0.037,-0.976 -0.829,-1.736 -1.768,-1.697 -0.939,0.038 -1.67,0.86 -1.632,1.836 0.037,0.976 0.828,1.736 1.767,1.697 C -0.694,1.798 0.037,0.976 0,0"
             style="fill:#263238;fill-opacity:1;fill-rule:nonzero;stroke:none"
             id="path616" />
        </g>
        <g
           id="g618"
           transform="translate(261.5742,404.7642)">
          <path
             d="M 0,0 -3.714,-1.869 C -4.211,-0.803 -3.781,0.479 -2.756,0.995 -1.73,1.511 -0.496,1.066 0,0"
             style="fill:#263238;fill-opacity:1;fill-rule:nonzero;stroke:none"
             id="path620" />
        </g>
        <g
           id="g622"
           transform="translate(262.0215,386.7368)">
          <path
             d="M 0,0 3.827,-1.604 C 3.4,-2.702 2.198,-3.233 1.141,-2.791 0.084,-2.347 -0.426,-1.098 0,0"
             style="fill:#f28f8f;fill-opacity:1;fill-rule:nonzero;stroke:none"
             id="path624" />
        </g>
        <g
           id="g626"
           transform="translate(278.626,402.4009)">
          <path
             d="m 0,0 -3.603,2.14 c 0.559,1.026 1.818,1.377 2.812,0.786 C 0.204,2.335 0.558,1.025 0,0"
             style="fill:#263238;fill-opacity:1;fill-rule:nonzero;stroke:none"
             id="path628" />
        </g>
        <g
           id="g630"
           transform="translate(276.9912,398.1055)">
          <path
             d="m 0,0 c -0.037,-0.976 -0.828,-1.735 -1.768,-1.697 -0.939,0.039 -1.67,0.861 -1.632,1.836 0.037,0.976 0.828,1.736 1.767,1.698 C -0.694,1.798 0.037,0.976 0,0"
             style="fill:#263238;fill-opacity:1;fill-rule:nonzero;stroke:none"
             id="path632" />
        </g>
        <g
           id="g634"
           transform="translate(267.8135,400.208)">
          <path
             d="m 0,0 -0.231,-10.161 5.144,0.359 z"
             style="fill:#f28f8f;fill-opacity:1;fill-rule:nonzero;stroke:none"
             id="path636" />
        </g>
        <g
           id="g638"
           transform="translate(303.5332,257.5205)">
          <path
             d="m 0,0 c -0.027,0.846 -0.624,1.706 -1.777,2.372 l -7.453,4.302 -7.707,-4.449 -0.002,-4.449 7.453,-4.302 c 2.268,-1.31 5.832,-1.376 7.961,-0.147 1.046,0.604 1.546,1.407 1.511,2.224 0,0 0.04,3.632 0.014,4.449"
             style="fill:#37474f;fill-opacity:1;fill-rule:nonzero;stroke:none"
             id="path640" />
        </g>
        <g
           id="g642"
           transform="translate(294.3027,264.1948)">
          <path
             d="M 0,0 7.453,-4.303 C 9.722,-5.612 9.835,-7.67 7.707,-8.899 5.579,-10.128 2.015,-10.062 -0.254,-8.752 L -7.707,-4.45 Z"
             style="fill:#455a64;fill-opacity:1;fill-rule:nonzero;stroke:none"
             id="path644" />
        </g>
        <g
           id="g646"
           transform="translate(293.2178,253.4917)">
          <path
             d="m 0,0 c 0,-0.256 -0.075,-0.455 -0.199,-0.579 l -0.208,-0.123 c -0.01,0 -0.02,0 -0.029,-0.009 L -9.761,-6.1 c -1.945,-1.129 -3.292,-0.816 -4.079,-0.36 -0.873,0.503 -1.907,1.689 -1.907,4.506 0,1.442 -0.351,1.964 -0.493,2.039 -0.114,0.067 -0.55,0.029 -1.234,-0.36 l -26.969,-15.577 -1.423,2.467 26.97,15.576 c 1.944,1.12 3.292,0.816 4.079,0.361 0.873,-0.503 1.916,-1.698 1.916,-4.506 0,-1.451 0.351,-1.963 0.484,-2.049 0.123,-0.066 0.55,-0.029 1.233,0.37 l 9.382,5.417 c 0,0 0.009,0 0.009,0.009 L -1.66,1.859 C -1.479,1.936 -1.262,1.907 -1.015,1.765 -0.455,1.442 0,0.655 0,0"
             style="fill:#e0e0e0;fill-opacity:1;fill-rule:nonzero;stroke:none"
             id="path648" />
        </g>
        <g
           id="g650"
           transform="translate(246.2109,234.2788)">
          <path
             d="m 0,0 -3.021,5.218 12.773,7.374 10e-4,-0.003 c 0.388,0.236 0.928,0.212 1.526,-0.134 1.178,-0.68 2.133,-2.333 2.133,-3.692 0,-0.662 -0.229,-1.127 -0.597,-1.357 L 12.818,7.401 12.79,7.385 C 12.788,7.384 12.786,7.382 12.784,7.381 Z"
             style="fill:#455a64;fill-opacity:1;fill-rule:nonzero;stroke:none"
             id="path652" />
        </g>
        <g
           id="g654"
           transform="translate(246.8315,235.6567)">
          <path
             d="m 0,0 c 0,-1.359 -0.955,-1.911 -2.132,-1.231 -1.178,0.68 -2.132,2.333 -2.132,3.692 0,1.36 0.954,1.911 2.132,1.231 C -0.955,3.013 0,1.359 0,0"
             style="fill:#263238;fill-opacity:1;fill-rule:nonzero;stroke:none"
             id="path656" />
        </g>
        <g
           id="g658"
           transform="translate(243.1895,260.7476)">
          <path
             d="m 0,0 c -1.653,7.17 -7.932,35.581 -8.621,41.268 -0.377,3.116 3.705,35.885 5.786,48.944 2.081,13.059 0.945,21.456 -5.044,20.854 -5.989,-0.603 -11.15,-5.138 -13.327,-18.629 -2.177,-13.491 -6.186,-48.945 -4.749,-56.206 1.126,-5.687 12.825,-43.178 17.784,-49.508 C -3.864,-18.777 0,0 0,0"
             style="fill:#ffa8a7;fill-opacity:1;fill-rule:nonzero;stroke:none"
             id="path660" />
        </g>
        <g
           id="g662"
           transform="translate(243.1895,260.7476)">
          <path
             d="m 0,0 c 2.201,-3.183 10.613,-8.88 13.7,-11.249 3.087,-2.368 4.196,-8.934 2.684,-11.525 -1.513,-2.591 -8.23,-5.705 -10.559,-5.097 -2.33,0.609 -2.397,1.625 -2.397,1.625 l 1.828,1.04 c 1.231,0.756 0.742,5.109 -2.405,5.572 l -3.083,-1.804 c -1.543,0.232 -4.755,3.389 -5.743,6.319 z"
             style="fill:#ffa8a7;fill-opacity:1;fill-rule:nonzero;stroke:none"
             id="path664" />
        </g>
        <g
           id="g666"
           transform="translate(238.3726,372.127)">
          <path
             d="m 0,0 c 0,0 -8.466,2.414 -13.431,-6.831 -4.966,-9.244 -7.144,-38.098 -7.144,-38.098 0,0 2.409,-2.408 10.287,-3.345 7.878,-0.937 10.504,1.615 10.504,1.615 0,0 4.315,30.239 4.089,36.616 C 4.079,-3.667 1.871,-1.08 0,0"
             style="fill:#27debf;fill-opacity:1;fill-rule:nonzero;stroke:none"
             id="path668" />
        </g>
        <g
           id="g670">
          <g
             id="g672" />
          <g
             id="g684">
            <g
               clip-path="url(#clipPath676)"
               opacity="0.199997"
               id="g682">
              <g
                 transform="translate(238.3726,372.127)"
                 id="g680">
                <path
                   d="m 0,0 c 0,0 -8.466,2.414 -13.431,-6.831 -4.966,-9.244 -7.144,-38.098 -7.144,-38.098 0,0 2.409,-2.408 10.287,-3.345 7.878,-0.937 10.504,1.615 10.504,1.615 0,0 4.315,30.239 4.089,36.616 C 4.079,-3.667 1.871,-1.08 0,0"
                   style="fill:#000000;fill-opacity:1;fill-rule:nonzero;stroke:none"
                   id="path678" />
              </g>
            </g>
          </g>
        </g>
      </g>
    </g>
  </g>
</svg>
