<svg xmlns="http://www.w3.org/2000/svg" viewBox="0 0 32 32" id="jacket"><path d="M20 7a1 1 0 0 1-1-1V4.438l-.073.028a8.448 8.448 0 0 1-5.854 0L13 4.438V6a1 1 0 0 1-2 0V3a1 1 0 0 1 1.349-.937l1.421.528a6.429 6.429 0 0 0 4.46 0l1.422-.528A1 1 0 0 1 21 3v3a1 1 0 0 1-1 1z"></path><path d="M16 8a8.376 8.376 0 0 1-2.927-.527l-1.422-.528a1 1 0 1 1 .698-1.874l1.421.528a6.429 6.429 0 0 0 4.46 0l1.421-.528a1.001 1.001 0 0 1 .698 1.874l-1.422.529A8.383 8.383 0 0 1 16 7.999z"></path><path d="M6 27.996h-.586a4.384 4.384 0 0 1-3.12-1.293 1 1 0 0 1-.29-.802l1.44-15.033a.979.979 0 0 1 .034-.18A5.656 5.656 0 0 1 6.38 7.192c.045-.022.152-.075 5.248-2.12a1 1 0 0 1 .744 1.857 930.148 930.148 0 0 0-5.131 2.068 3.632 3.632 0 0 0-1.815 2.159L4.046 25.57c.4.274.88.426 1.368.426H6a1 1 0 1 1 0 2zm20.586 0H26a1 1 0 1 1 0-2h.586c.496 0 .969-.149 1.37-.424l-1.38-14.416a3.657 3.657 0 0 0-1.85-2.176c-.175-.075-3.15-1.271-5.098-2.052a1 1 0 1 1 .744-1.856c5.096 2.044 5.202 2.097 5.248 2.12a5.658 5.658 0 0 1 2.903 3.496c.017.059.028.119.034.18l1.438 15.033a1 1 0 0 1-.288.803 4.386 4.386 0 0 1-3.12 1.292z"></path><path d="M16 30c-2.465 0-4.929-.335-7.275-1.005A1 1 0 0 1 8 28.034V17.998c0-1.99-.32-3.957-.948-5.846a1 1 0 1 1 1.897-.631A20.439 20.439 0 0 1 10 17.998v9.269c3.896.98 8.103.98 12 0v-9.27c0-2.205.354-4.383 1.052-6.476a1 1 0 1 1 1.896.632A18.47 18.47 0 0 0 24 17.997v10.035a1 1 0 0 1-.725.962A26.55 26.55 0 0 1 16 30z"></path><path d="M16 29.996a1 1 0 0 1-1-1V8.999a1 1 0 0 1 2 0v19.997a1 1 0 0 1-1 1zm5-3a1 1 0 0 1-.948-.683l-1-3a1 1 0 0 1 1.896-.633l1 3A1 1 0 0 1 21 26.997zm-10 0a1 1 0 0 1-.949-1.317l1-2.999a1 1 0 0 1 1.897.633l-1 3a1 1 0 0 1-.948.684z"></path></svg>