<svg xmlns="http://www.w3.org/2000/svg" enable-background="new 0 0 512 512" viewBox="0 0 512 512" id="letter"><g><g><g><path fill="#dc5461" d="M248.482 195.827c4.141 4.141 10.87 4.157 15.029 0 3.267-3.304-15.908 15.907 57.828-57.829 19.97-19.97 19.971-52.289 0-72.259-17.923-17.925-45.605-19.627-65.344-5.813-19.728-13.8-47.398-12.131-65.341 5.813-19.953 19.953-19.968 52.291 0 72.259C193.229 140.572 247.057 194.399 248.482 195.827zM205.681 80.764c11.66-11.662 30.54-11.675 42.221.006l.589.588c4.133 4.126 10.821 4.143 14.973.039l.642-.634c11.665-11.667 30.541-11.668 42.206 0 11.664 11.664 11.668 30.541 0 42.206l-50.315 50.316-50.316-50.316C194.029 111.319 194.019 92.423 205.681 80.764zM360.519 229.948H151.481c-5.868 0-10.625 4.757-10.625 10.625s4.757 10.625 10.625 10.625h209.039c5.868 0 10.625-4.757 10.625-10.625S366.387 229.948 360.519 229.948zM320.703 279.72H191.298c-5.868 0-10.625 4.757-10.625 10.625 0 5.868 4.757 10.625 10.625 10.625h129.405c5.868 0 10.625-4.757 10.625-10.625C331.328 284.477 326.57 279.72 320.703 279.72z"></path><path fill="#283954" d="M507.059,212.686l-86.138-78.975V11.625C420.921,5.757,416.164,1,410.296,1h-62.931
				c-5.868,0-10.625,4.757-10.625,10.625s4.757,10.625,10.625,10.625h52.306v255.134C342.272,317.374,276.228,363.388,256,377.482
				c-20.228-14.094-86.272-60.108-143.671-100.098V22.25h192.535c5.868,0,10.625-4.757,10.625-10.625S310.732,1,304.865,1h-203.16
				c-5.868,0-10.625,4.757-10.625,10.625v122.086L4.941,212.686c-2.107,1.915-3.445,4.809-3.445,7.832v259.866
				c0,9.167,4.044,17.399,10.431,23.015c0.123,0.112,0.248,0.221,0.376,0.327C17.628,508.258,24.514,511,32.029,511h447.941
				c7.515,0,14.401-2.742,19.726-7.274c0.131-0.108,0.259-0.219,0.385-0.335c6.382-5.616,10.422-13.845,10.422-23.007V220.518
				C510.504,217.464,509.181,214.631,507.059,212.686z M489.254,480.019L317.627,360.445
				c21.581-15.036,151.168-105.321,171.627-119.575V480.019z M420.921,162.541l61.999,56.843
				c-12.813,8.927-35.567,24.779-61.999,43.195V162.541z M262.074,399.149c1.484-1.034,15.865-11.053,36.965-25.755L466.047,489.75
				H45.962l58.692-40.891c4.814-3.355,5.998-9.977,2.644-14.792c-3.354-4.814-9.976-5.997-14.792-2.644l-69.76,48.601V240.87
				c49.812,34.704,117.378,81.779,171.627,119.575l-67.007,46.692c-4.814,3.354-5.998,9.976-2.643,14.791
				c3.362,4.827,9.989,5.99,14.791,2.643l73.443-51.177c21.102,14.702,35.483,24.722,36.968,25.756
				C253.571,401.687,258.416,401.696,262.074,399.149z M91.079,262.579c-26.432-18.415-49.186-34.268-61.999-43.195l61.999-56.843
				V262.579z"></path></g></g></g></svg>