<svg xmlns="http://www.w3.org/2000/svg" version="1.1" xmlns:xlink="http://www.w3.org/1999/xlink" xmlns:svgjs="http://svgjs.dev/svgjs" width="1500" height="1500" viewBox="0 0 1500 1500"><rect width="1500" height="1500" fill="#ffffff"></rect><g transform="matrix(0.6666666666666666,0,0,0.6666666666666666,249.39393939393938,532.0266716690973)"><svg viewBox="0 0 396 173" data-background-color="#ffffff" preserveAspectRatio="xMidYMid meet" height="655" width="1500" xmlns="http://www.w3.org/2000/svg" xmlns:xlink="http://www.w3.org/1999/xlink"><g id="tight-bounds" transform="matrix(1,0,0,1,0.2400000000000091,-0.14262793607747426)"><svg viewBox="0 0 395.52 173.28525587215495" height="173.28525587215495" width="395.52"><g><svg viewBox="0 0 397.49759999999986 174.15168215151567" height="173.28525587215495" width="395.52"><g><rect width="397.49759999999986" height="5.3340360109642875" x="0" y="95.70610871338278" fill="#ca3433" opacity="1" stroke-width="0" stroke="transparent" fill-opacity="1" class="rect-yte-0" data-fill-palette-color="secondary" rx="1%" id="yte-0" data-palette-color="#ca3433"></rect></g><g transform="matrix(1,0,0,1,0.9887999999999693,115.0035897792274)"><svg viewBox="0 0 395.5199999999999 59.1480923722883" height="59.1480923722883" width="395.5199999999999"><g id="textblocktransform"><svg viewBox="0 0 395.5199999999999 59.1480923722883" height="59.1480923722883" width="395.5199999999999" id="textblock"><g><svg viewBox="0 0 395.5199999999999 59.1480923722883" height="59.1480923722883" width="395.5199999999999"><g transform="matrix(1,0,0,1,0,0)"><svg width="395.5199999999999" viewBox="4.5 -40.5 357.22 53.43" height="59.1480923722883" data-palette-color="#ff0000"><path d="M9.75-21.13L9.75-4.28Q10.23-4.13 10.85-3.99 11.48-3.85 12.19-3.76 12.9-3.68 13.65-3.63 14.4-3.58 15.1-3.58L15.1-3.58Q16.63-3.58 17.79-4.08 18.95-4.58 19.8-5.41 20.65-6.25 21.21-7.39 21.78-8.53 22.13-9.79 22.48-11.05 22.61-12.4 22.75-13.75 22.75-15.03L22.75-15.03Q22.75-17.53 22.28-19.23 21.8-20.93 20.99-21.98 20.18-23.03 19.11-23.48 18.05-23.93 16.88-23.93L16.88-23.93Q14.9-23.93 13.1-23.16 11.3-22.4 9.75-21.13L9.75-21.13ZM5-0.88L5-35.5 4.5-40 9.75-40.5 9.75-24.35 11.88-26.63Q13.15-27.23 14.55-27.58 15.95-27.93 17.35-27.93L17.35-27.93Q19.43-27.93 21.26-27.08 23.1-26.23 24.49-24.56 25.88-22.9 26.69-20.48 27.5-18.05 27.5-14.9L27.5-14.9Q27.5-11.45 26.56-8.63 25.63-5.8 23.94-3.79 22.25-1.78 19.94-0.68 17.63 0.43 14.88 0.43L14.88 0.43Q13.3 0.43 11.78 0.31 10.25 0.2 8.93 0.01 7.6-0.18 6.58-0.41 5.55-0.65 5-0.88L5-0.88ZM39.75-26.88L39.75 0 35 0 35-26.38 39.75-26.88ZM34.85-32.5L34.85-37.5 39.9-37.5 39.9-32.5 34.85-32.5ZM54.75 0L50 0 50-35.5 49.5-40 54.75-40.5 54.75-17.25 64-27.5 69.72-27.5 60.47-17.25 56.27-15.68 60.47-14.18 72.5 0 66.59 0 54.75-13.93 54.75 0ZM93.92-5.63L96.64-3.23Q95.87-2.43 94.94-1.75 94.02-1.07 92.89-0.59 91.77-0.1 90.41 0.16 89.04 0.43 87.37 0.43L87.37 0.43Q84.04 0.43 81.69-0.75 79.34-1.93 77.86-3.9 76.37-5.88 75.68-8.43 74.99-10.98 74.99-13.75L74.99-13.75Q74.99-15.53 75.32-17.26 75.64-19 76.29-20.58 76.94-22.15 77.92-23.5 78.89-24.85 80.19-25.83 81.49-26.8 83.13-27.36 84.77-27.93 86.74-27.93L86.74-27.93Q89.44-27.93 91.42-27.05 93.39-26.18 94.69-24.6 95.99-23.03 96.62-20.83 97.24-18.63 97.24-15.95L97.24-15.95Q97.24-15.18 97.19-14.25 97.14-13.33 97.04-12.5L97.04-12.5 79.74-12.5Q79.74-10.63 80.26-9 80.77-7.38 81.69-6.16 82.62-4.95 83.93-4.26 85.24-3.58 86.87-3.58L86.87-3.58Q88.47-3.58 89.66-3.81 90.84-4.05 91.69-4.39 92.54-4.73 93.08-5.08 93.62-5.43 93.92-5.63L93.92-5.63ZM83.37-16.25L92.49-16.25Q92.52-16.53 92.53-16.8 92.54-17.07 92.54-17.35L92.54-17.35Q92.54-18.78 92.22-19.98 91.89-21.18 91.23-22.06 90.57-22.95 89.54-23.45 88.52-23.95 87.12-23.95L87.12-23.95Q85.44-23.95 84.26-23.41 83.07-22.88 82.26-22.04 81.44-21.2 80.96-20.2 80.47-19.2 80.22-18.3L80.22-18.3 78.92-15.58 83.37-16.25ZM127.24 0L122.49 0 122.49-35.5 121.99-40 127.24-40.5 127.24-17.25 136.49-27.5 142.21-27.5 132.96-17.25 128.76-15.68 132.96-14.18 144.99 0 139.09 0 127.24-13.93 127.24 0ZM154.74-26.88L154.74 0 149.99 0 149.99-26.38 154.74-26.88ZM149.84-32.5L149.84-37.5 154.89-37.5 154.89-32.5 149.84-32.5ZM169.73-21.1L169.73 0 164.98 0 164.98-27.5 169.73-28 169.73-23.43 171.26-26.1Q171.71-26.4 172.41-26.73 173.11-27.05 173.97-27.31 174.83-27.58 175.83-27.75 176.83-27.93 177.86-27.93L177.86-27.93Q179.83-27.93 181.2-27.29 182.56-26.65 183.41-25.45 184.26-24.25 184.62-22.55 184.98-20.85 184.98-18.75L184.98-18.75 184.98 0 180.23 0 180.23-18.75Q180.23-20.1 180.05-21.08 179.86-22.05 179.4-22.69 178.93-23.33 178.16-23.63 177.38-23.93 176.23-23.93L176.23-23.93Q175.38-23.93 174.51-23.66 173.63-23.4 172.8-22.99 171.96-22.58 171.17-22.08 170.38-21.58 169.73-21.1L169.73-21.1ZM210.23 0.78L210.23-3.38 208.06-0.63Q207.83-0.48 207.42-0.3 207.01-0.13 206.41 0.04 205.81 0.2 205.01 0.31 204.21 0.43 203.23 0.43L203.23 0.43Q200.96 0.43 198.99-0.69 197.03-1.8 195.58-3.71 194.13-5.63 193.31-8.19 192.48-10.75 192.48-13.63L192.48-13.63Q192.48-16.55 193.23-19.15 193.98-21.75 195.48-23.7 196.98-25.65 199.21-26.79 201.43-27.93 204.38-27.93L204.38-27.93Q205.31-27.93 206.19-27.85 207.08-27.78 207.86-27.5L207.86-27.5 210.23-23.95 210.23-28 214.98-27.5 214.98 1.15Q214.98 3.6 214.14 5.75 213.31 7.9 211.73 9.49 210.16 11.08 207.89 12 205.63 12.93 202.78 12.93L202.78 12.93Q200.81 12.93 199.32 12.43 197.83 11.93 196.78 11.33L196.78 11.33Q195.58 10.63 194.71 9.7L194.71 9.7 197.16 6.95Q197.88 7.5 198.78 7.95L198.78 7.95Q199.56 8.33 200.58 8.63 201.61 8.93 202.81 8.93L202.81 8.93Q204.36 8.93 205.71 8.29 207.06 7.65 208.07 6.55 209.08 5.45 209.66 3.96 210.23 2.48 210.23 0.78L210.23 0.78ZM210.23-6.88L210.23-20.85Q209.56-21.7 208.66-22.38L208.66-22.38Q207.88-22.95 206.78-23.44 205.68-23.93 204.26-23.93L204.26-23.93Q202.76-23.93 201.66-23.45 200.56-22.98 199.77-22.18 198.98-21.38 198.49-20.31 198.01-19.25 197.72-18.06 197.43-16.88 197.33-15.66 197.23-14.45 197.23-13.33L197.23-13.33Q197.23-11.2 197.69-9.41 198.16-7.63 198.99-6.34 199.83-5.05 201.02-4.33 202.21-3.6 203.63-3.6L203.63-3.6Q204.91-3.6 205.91-3.88 206.91-4.15 207.71-4.61 208.51-5.08 209.12-5.66 209.73-6.25 210.23-6.88L210.23-6.88ZM237.95-26.18L236.5-22.98Q236.05-23.2 235.43-23.43 234.8-23.65 234.13-23.83 233.45-24 232.77-24.1 232.08-24.2 231.45-24.2L231.45-24.2Q228.8-24.2 227.7-23.41 226.6-22.63 226.6-21.05L226.6-21.05Q226.6-20 227.33-19.31 228.05-18.63 229.2-18.07 230.35-17.53 231.77-17.04 233.18-16.55 234.53-15.88L234.53-15.88Q235.5-15.4 236.5-14.75 237.5-14.1 238.3-13.23 239.1-12.35 239.6-11.25 240.1-10.15 240.1-8.78L240.1-8.78Q240.1-6.25 239.25-4.5 238.4-2.75 236.94-1.66 235.48-0.58 233.52-0.08 231.55 0.43 229.33 0.43L229.33 0.43Q228.48 0.43 227.4 0.26 226.33 0.1 225.25-0.19 224.18-0.48 223.2-0.88 222.23-1.28 221.58-1.73L221.58-1.73 223.23-5.03Q223.83-4.73 224.65-4.46 225.48-4.2 226.35-4 227.23-3.8 228.09-3.69 228.95-3.58 229.63-3.58L229.63-3.58Q230.78-3.58 231.84-3.81 232.9-4.05 233.72-4.58 234.53-5.1 235.02-5.94 235.5-6.78 235.5-8L235.5-8Q235.5-8.93 235.12-9.63 234.73-10.33 234.07-10.86 233.4-11.4 232.53-11.85 231.65-12.3 230.68-12.71 229.7-13.13 228.68-13.56 227.65-14 226.73-14.53L226.73-14.53Q225.85-15.03 225.04-15.63 224.23-16.23 223.6-16.98 222.98-17.73 222.6-18.66 222.23-19.6 222.23-20.8L222.23-20.8Q222.23-22.7 222.9-24.06 223.58-25.43 224.8-26.28 226.03-27.13 227.75-27.53 229.48-27.93 231.55-27.93L231.55-27.93Q232.5-27.93 233.43-27.78 234.35-27.63 235.2-27.39 236.05-27.15 236.75-26.83 237.45-26.5 237.95-26.18L237.95-26.18ZM276.75-23.7L276.75-23.7Q275.75-23.7 274.77-23.3 273.8-22.9 272.9-22.23 272-21.55 271.2-20.65 270.4-19.75 269.72-18.75L269.72-18.75 269.72 0 264.97 0 264.97-27.5 269.72-28 269.72-22.38 272.22-26.75Q272.55-26.95 273.04-27.16 273.52-27.38 274.15-27.54 274.77-27.7 275.49-27.81 276.2-27.93 276.95-27.93L276.95-27.93Q278.07-27.93 278.84-27.73 279.6-27.53 279.97-27.35L279.97-27.35 279.72-23.2Q279.35-23.33 278.6-23.51 277.85-23.7 276.75-23.7ZM294.95 0.43L294.95 0.43Q292.17 0.43 289.88-0.66 287.6-1.75 285.95-3.66 284.3-5.58 283.38-8.19 282.47-10.8 282.47-13.83L282.47-13.83Q282.47-16.85 283.35-19.44 284.22-22.03 285.85-23.91 287.47-25.8 289.78-26.86 292.1-27.93 294.95-27.93L294.95-27.93Q297.72-27.93 300.02-26.86 302.32-25.8 303.97-23.91 305.62-22.03 306.55-19.44 307.47-16.85 307.47-13.83L307.47-13.83Q307.47-10.8 306.58-8.19 305.7-5.58 304.07-3.66 302.45-1.75 300.12-0.66 297.8 0.43 294.95 0.43ZM302.72-13.15L302.72-13.15Q302.72-15.18 302.28-17.13 301.85-19.07 300.9-20.61 299.95-22.15 298.45-23.1 296.95-24.05 294.85-24.05L294.85-24.05Q292.85-24.05 291.4-23.23 289.95-22.4 289.02-21.03 288.1-19.65 287.66-17.9 287.22-16.15 287.22-14.3L287.22-14.3Q287.22-12.28 287.66-10.33 288.1-8.38 289.03-6.85 289.97-5.33 291.46-4.39 292.95-3.45 295.05-3.45L295.05-3.45Q297.02-3.45 298.47-4.28 299.92-5.1 300.87-6.46 301.82-7.83 302.27-9.58 302.72-11.33 302.72-13.15ZM332.47-4.5L332.97 0 327.72 0 327.72-4.05 325.37-1.25Q324.94-0.93 324.39-0.63 323.84-0.33 323.28-0.09 322.72 0.15 322.16 0.29 321.59 0.43 321.12 0.43L321.12 0.43Q319.24 0.43 317.53-0.16 315.82-0.75 314.53-1.89 313.24-3.03 312.48-4.71 311.72-6.4 311.72-8.6L311.72-8.6Q311.72-10.93 312.66-12.64 313.59-14.35 315.06-15.49 316.52-16.63 318.32-17.19 320.12-17.75 321.84-17.75L321.84-17.75Q323.27-17.75 324.36-17.6 325.44-17.45 326.19-17.25L326.19-17.25Q327.07-17.03 327.72-16.75L327.72-16.75 327.72-17.63Q327.72-19.1 327.54-20.28 327.37-21.45 326.83-22.26 326.29-23.08 325.28-23.5 324.27-23.93 322.59-23.93L322.59-23.93Q321.24-23.93 319.99-23.74 318.74-23.55 317.77-23.33L317.77-23.33Q316.62-23.05 315.64-22.75L315.64-22.75 313.84-26.1Q314.94-26.6 316.34-27L316.34-27Q317.54-27.35 319.19-27.64 320.84-27.93 322.84-27.93L322.84-27.93Q325.72-27.93 327.59-27.15 329.47-26.38 330.54-24.98 331.62-23.58 332.04-21.61 332.47-19.65 332.47-17.25L332.47-17.25 332.47-4.5ZM327.72-6.85L327.72-13.33Q327.02-13.43 326.22-13.53L326.22-13.53Q325.54-13.6 324.67-13.68 323.79-13.75 322.84-13.75L322.84-13.75Q321.44-13.75 320.28-13.48 319.12-13.2 318.27-12.59 317.42-11.98 316.94-11 316.47-10.03 316.47-8.63L316.47-8.63Q316.47-7.5 316.84-6.58 317.22-5.65 317.87-4.98 318.52-4.3 319.41-3.94 320.29-3.58 321.32-3.58L321.32-3.58Q321.79-3.58 322.33-3.71 322.87-3.85 323.41-4.08 323.94-4.3 324.48-4.6 325.02-4.9 325.49-5.2L325.49-5.2Q326.62-5.93 327.72-6.85L327.72-6.85ZM356.47-23.5L352.62-23.5Q350.32-23.5 348.64-22.64 346.97-21.78 345.87-20.3 344.77-18.82 344.24-16.82 343.72-14.83 343.72-12.55L343.72-12.55Q343.72-10.33 344.24-8.65 344.77-6.98 345.6-5.85 346.44-4.73 347.52-4.16 348.59-3.6 349.72-3.6L349.72-3.6Q350.89-3.6 351.9-4 352.92-4.4 353.77-5 354.62-5.6 355.29-6.31 355.97-7.03 356.47-7.65L356.47-7.65 356.47-23.5ZM361.72 0L356.47 0 356.47-4.05 354.09-1.23Q353.64-0.93 353.12-0.63 352.59-0.33 351.94-0.1 351.29 0.13 350.5 0.28 349.72 0.43 348.74 0.43L348.74 0.43Q346.69 0.43 344.92-0.59 343.14-1.6 341.83-3.4 340.52-5.2 339.75-7.69 338.99-10.18 338.99-13.15L338.99-13.15Q338.99-16.15 339.95-18.76 340.92-21.38 342.69-23.33 344.47-25.28 346.98-26.39 349.49-27.5 352.59-27.5L352.59-27.5 356.47-27.5 356.47-40.5 361.22-40 361.22-4.5 361.72 0Z" opacity="1" transform="matrix(1,0,0,1,0,0)" fill="#ff0000" class="wordmark-text-0" data-fill-palette-color="primary" id="text-0"></path></svg></g></svg></g></svg></g></svg></g><g transform="matrix(1,0,0,1,118.64581168249188,0)"><svg viewBox="0 0 160.2059766350161 81.74266365850244" height="81.74266365850244" width="160.2059766350161"><g><svg xmlns="http://www.w3.org/2000/svg" xmlns:xlink="http://www.w3.org/1999/xlink" version="1.1" x="8" y="0" viewBox="11.11 28.316 77.633 44.006" enable-background="new 0 0 100 100" xml:space="preserve" height="81.74266365850244" width="144.2059766350161" class="icon-icon-0" data-fill-palette-color="accent" id="icon-0"><g fill="#ed2647" data-fill-palette-color="accent"><path d="M73.971 42.781A14.7 14.7 0 0 0 68.63 43.796C67.523 41.095 66.53 38.62 65.974 37.11 65.431 35.636 65.409 34.4 65.908 33.435 66.583 32.132 68.018 31.734 68.033 31.73L68.405 31.63V28.316H61.405V29.316H67.405V30.891C66.816 31.125 65.678 31.717 65.027 32.963 64.53 33.915 64.425 35.041 64.704 36.317H38.271L36.898 33.058 40.404 31.579V29.316H30.55L32.868 34.756 35.976 33.445 37.568 37.223 32.922 44.569A14.7 14.7 0 0 0 25.881 42.78C17.736 42.78 11.11 49.406 11.11 57.551S17.736 72.322 25.881 72.322 40.651 65.696 40.651 57.551C40.651 57.134 40.623 56.724 40.589 56.316H41.326C41.758 58.627 43.782 60.384 46.215 60.384A4.987 4.987 0 0 0 51.197 55.401C51.197 54.425 50.905 53.521 50.418 52.752L65.959 39.851C66.464 41.128 67.069 42.621 67.713 44.192 62.693 46.554 59.201 51.646 59.201 57.551 59.201 65.696 65.827 72.322 73.972 72.322S88.743 65.696 88.743 57.551 82.116 42.781 73.971 42.781M32.063 30.316H39.404V30.915L33.397 33.448zM39.651 57.551C39.651 65.145 33.474 71.322 25.881 71.322S12.11 65.144 12.11 57.551 18.287 43.78 25.881 43.78C28.232 43.78 30.446 44.375 32.384 45.418L25.491 56.315H39.587C39.625 56.724 39.651 57.134 39.651 57.551M33.242 45.934A13.77 13.77 0 0 1 39.452 55.316H27.308zM33.776 45.089L38.041 38.346 43.477 51.247A4.97 4.97 0 0 0 41.242 55.315H40.464A14.78 14.78 0 0 0 33.776 45.089M46.214 59.384A3.987 3.987 0 0 1 42.233 55.401 3.985 3.985 0 0 1 46.214 51.421 3.986 3.986 0 0 1 50.196 55.401 3.986 3.986 0 0 1 46.214 59.384M49.803 51.962A4.96 4.96 0 0 0 46.214 50.42C45.561 50.42 44.94 50.554 44.367 50.784L38.693 37.316H64.99C65.007 37.363 65.018 37.408 65.036 37.456 65.185 37.861 65.369 38.341 65.574 38.871zM73.971 71.323C66.378 71.323 60.2 65.145 60.2 57.552 60.2 52.064 63.435 47.329 68.092 45.118 70.482 50.924 73.214 57.354 73.256 57.452L74.176 57.06C74.134 56.962 71.398 50.521 69.01 44.721A13.7 13.7 0 0 1 73.971 43.782C81.565 43.782 87.742 49.959 87.742 57.553 87.743 65.145 81.565 71.323 73.971 71.323" fill="#ed2647" data-fill-palette-color="accent"></path><rect x="47.405" y="64.316" width="6" height="1" fill="#ed2647" data-fill-palette-color="accent"></rect></g></svg></g></svg></g><g><rect width="42.11269168249194" height="5.3340360109642875" y="75.40862764753815" x="278.85178831750795" fill="#ca3433" data-fill-palette-color="secondary"></rect><rect width="42.11269168249194" height="5.3340360109642875" y="75.40862764753815" x="76.53311999999994" fill="#ca3433" data-fill-palette-color="secondary"></rect></g></svg></g><defs></defs></svg><rect width="395.52" height="173.28525587215495" fill="none" stroke="none" visibility="hidden"></rect></g></svg></g></svg>