<svg xmlns="http://www.w3.org/2000/svg" viewBox="0 0 100 100" id="repair"><g data-name="Layer 10"><path d="M84.9 37.48l-14-4.61-4.61-14L76.75 8.37a21.25 21.25 0 0 0-22.3 28.78l-8.18 8.19 8 8 1.49-1.48a3.26 3.26 0 0 1 4.51 0l1.85 1.85 4.44-4.44A21.26 21.26 0 0 0 95.38 27zM45.89 61.78l1.49-1.48-8-8L14.28 77.33A8.58 8.58 0 0 0 26.42 89.47L47.75 68.14l-1.86-1.85A3.2 3.2 0 0 1 45.89 61.78zM24.3 85a3.9 3.9 0 1 1 0-5.52A3.91 3.91 0 0 1 24.3 85z"></path><path d="M58 52a2.17 2.17 0 0 0-1.54.64l-9.9 9.9a2.19 2.19 0 0 0 0 3.09l1.85 1.86 22.91 22.9a7 7 0 0 0 9.9 0l3.09-3.09a7 7 0 0 0 0-9.9l-22.9-22.9-1.86-1.86A2.18 2.18 0 0 0 58 52zM53.59 54.08l-8-8-19-19a.46.46 0 0 1-.13-.2l-2.14-6.76-12.6-8L6 17.68l8 12.61 6.77 2.14a.56.56 0 0 1 .2.12l19 19 8 8z"></path></g></svg>